<svg width="3363" height="2198" xmlns="http://www.w3.org/2000/svg" xmlns:xlink="http://www.w3.org/1999/xlink" xml:space="preserve" overflow="hidden"><g transform="translate(1 1)"><rect x="0" y="0" width="3360" height="2195" fill="#FFFFFF"/><g><path d="M120.5 1672.56 3140.5 1672.56M120.5 1458.55 3140.5 1458.55M120.5 1243.54 3140.5 1243.54M120.5 1028.53 3140.5 1028.53M120.5 814.527 3140.5 814.527M120.5 599.52 3140.5 599.52M120.5 384.513 3140.5 384.513M120.5 169.5 3140.5 169.5" stroke="#D9D9D9" stroke-width="3.4375" stroke-linejoin="round" stroke-miterlimit="10" fill="none"/></g><g><path d="M120.5 169.5 120.5 1887.5M422.514 169.5 422.514 1887.5M724.524 169.5 724.524 1887.5M1026.53 169.5 1026.53 1887.5M1328.54 169.5 1328.54 1887.5M1932.56 169.5 1932.56 1887.5M2234.57 169.5 2234.57 1887.5M2536.58 169.5 2536.58 1887.5M2838.59 169.5 2838.59 1887.5M3140.5 169.5 3140.5 1887.5" stroke="#D9D9D9" stroke-width="3.4375" stroke-linejoin="round" stroke-miterlimit="10" fill="none"/></g><g><path d="M0 0 0.000360892 1718" stroke="#BFBFBF" stroke-width="3.4375" stroke-linejoin="round" stroke-miterlimit="10" fill="none" fill-rule="evenodd" transform="matrix(1 0 0 -1 3140.5 1887.5)"/></g><g><path d="M3140.5 1887.5 3153.5 1887.5M3140.5 1715.56 3153.5 1715.56M3140.5 1543.55 3153.5 1543.55M3140.5 1372.55 3153.5 1372.55M3140.5 1200.54 3153.5 1200.54M3140.5 1028.53 3153.5 1028.53M3140.5 856.528 3153.5 856.528M3140.5 685.523 3153.5 685.523M3140.5 513.517 3153.5 513.517M3140.5 341.511 3153.5 341.511M3140.5 169.5 3153.5 169.5" stroke="#BFBFBF" stroke-width="3.4375" stroke-linejoin="round" stroke-miterlimit="10" fill="none"/></g><g><path d="M0 0 0.000360892 1718" stroke="#BFBFBF" stroke-width="3.4375" stroke-linejoin="round" stroke-miterlimit="10" fill="none" fill-rule="evenodd" transform="matrix(1 0 0 -1 1630.5 1887.5)"/></g><g><path d="M120.5 1887.5 3140.5 1887.5" stroke="#BFBFBF" stroke-width="3.4375" stroke-linejoin="round" stroke-miterlimit="10" fill="none" fill-rule="evenodd"/></g><g><path d="M2758.5 478.5C2758.5 484.575 2753.57 489.499 2747.5 489.499 2741.42 489.499 2736.5 484.575 2736.5 478.5 2736.5 472.425 2741.42 467.5 2747.5 467.5 2753.57 467.5 2758.5 472.425 2758.5 478.5Z" stroke="#196B24" stroke-width="3.4375" stroke-linejoin="round" stroke-miterlimit="10" fill="#196B24"/><path d="M2728.5 466.5C2728.5 472.575 2723.57 477.499 2717.5 477.499 2711.42 477.499 2706.5 472.575 2706.5 466.5 2706.5 460.425 2711.42 455.5 2717.5 455.5 2723.57 455.5 2728.5 460.425 2728.5 466.5Z" stroke="#196B24" stroke-width="3.4375" stroke-linejoin="round" stroke-miterlimit="10" fill="#196B24"/><path d="M2698.5 457.5C2698.5 463.575 2693.57 468.499 2687.5 468.499 2681.42 468.499 2676.5 463.575 2676.5 457.5 2676.5 451.425 2681.42 446.5 2687.5 446.5 2693.57 446.5 2698.5 451.425 2698.5 457.5Z" stroke="#196B24" stroke-width="3.4375" stroke-linejoin="round" stroke-miterlimit="10" fill="#196B24"/><path d="M2667.5 450.5C2667.5 456.575 2662.57 461.499 2656.5 461.499 2650.42 461.499 2645.5 456.575 2645.5 450.5 2645.5 444.425 2650.42 439.5 2656.5 439.5 2662.57 439.5 2667.5 444.425 2667.5 450.5Z" stroke="#196B24" stroke-width="3.4375" stroke-linejoin="round" stroke-miterlimit="10" fill="#196B24"/><path d="M2637.5 444.5C2637.5 450.575 2632.57 455.499 2626.5 455.499 2620.42 455.499 2615.5 450.575 2615.5 444.5 2615.5 438.425 2620.42 433.5 2626.5 433.5 2632.57 433.5 2637.5 438.425 2637.5 444.5Z" stroke="#196B24" stroke-width="3.4375" stroke-linejoin="round" stroke-miterlimit="10" fill="#196B24"/><path d="M2607.5 438.5C2607.5 444.575 2602.57 449.499 2596.5 449.499 2590.42 449.499 2585.5 444.575 2585.5 438.5 2585.5 432.425 2590.42 427.5 2596.5 427.5 2602.57 427.5 2607.5 432.425 2607.5 438.5Z" stroke="#196B24" stroke-width="3.4375" stroke-linejoin="round" stroke-miterlimit="10" fill="#196B24"/><path d="M2577.5 433.5C2577.5 439.575 2572.57 444.499 2566.5 444.499 2560.42 444.499 2555.5 439.575 2555.5 433.5 2555.5 427.425 2560.42 422.5 2566.5 422.5 2572.57 422.5 2577.5 427.425 2577.5 433.5Z" stroke="#196B24" stroke-width="3.4375" stroke-linejoin="round" stroke-miterlimit="10" fill="#196B24"/><path d="M2547.5 430.5C2547.5 436.574 2542.57 441.499 2536.5 441.499 2530.42 441.499 2525.5 436.574 2525.5 430.5 2525.5 424.425 2530.42 419.5 2536.5 419.5 2542.57 419.5 2547.5 424.425 2547.5 430.5Z" stroke="#196B24" stroke-width="3.4375" stroke-linejoin="round" stroke-miterlimit="10" fill="#196B24"/><path d="M2516.5 426.5C2516.5 432.575 2511.57 437.499 2505.5 437.499 2499.42 437.499 2494.5 432.575 2494.5 426.5 2494.5 420.425 2499.42 415.5 2505.5 415.5 2511.57 415.5 2516.5 420.425 2516.5 426.5Z" stroke="#196B24" stroke-width="3.4375" stroke-linejoin="round" stroke-miterlimit="10" fill="#196B24"/><path d="M2486.5 424.5C2486.5 430.575 2481.57 435.499 2475.5 435.499 2469.42 435.499 2464.5 430.575 2464.5 424.5 2464.5 418.425 2469.42 413.5 2475.5 413.5 2481.57 413.5 2486.5 418.425 2486.5 424.5Z" stroke="#196B24" stroke-width="3.4375" stroke-linejoin="round" stroke-miterlimit="10" fill="#196B24"/><path d="M2456.5 423.5C2456.5 429.575 2451.57 434.499 2445.5 434.499 2439.42 434.499 2434.5 429.575 2434.5 423.5 2434.5 417.425 2439.42 412.5 2445.5 412.5 2451.57 412.5 2456.5 417.425 2456.5 423.5Z" stroke="#196B24" stroke-width="3.4375" stroke-linejoin="round" stroke-miterlimit="10" fill="#196B24"/><path d="M2426.5 424.5C2426.5 430.575 2421.57 435.499 2415.5 435.499 2409.42 435.499 2404.5 430.575 2404.5 424.5 2404.5 418.425 2409.42 413.5 2415.5 413.5 2421.57 413.5 2426.5 418.425 2426.5 424.5Z" stroke="#196B24" stroke-width="3.4375" stroke-linejoin="round" stroke-miterlimit="10" fill="#196B24"/><path d="M2396.5 425.5C2396.5 431.575 2391.57 436.499 2385.5 436.499 2379.42 436.499 2374.5 431.575 2374.5 425.5 2374.5 419.425 2379.42 414.5 2385.5 414.5 2391.57 414.5 2396.5 419.425 2396.5 425.5Z" stroke="#196B24" stroke-width="3.4375" stroke-linejoin="round" stroke-miterlimit="10" fill="#196B24"/><path d="M2365.5 428.5C2365.5 434.575 2360.57 439.499 2354.5 439.499 2348.42 439.499 2343.5 434.575 2343.5 428.5 2343.5 422.425 2348.42 417.5 2354.5 417.5 2360.57 417.5 2365.5 422.425 2365.5 428.5Z" stroke="#196B24" stroke-width="3.4375" stroke-linejoin="round" stroke-miterlimit="10" fill="#196B24"/><path d="M2335.5 435.5C2335.5 441.575 2330.57 446.499 2324.5 446.499 2318.42 446.499 2313.5 441.575 2313.5 435.5 2313.5 429.425 2318.42 424.5 2324.5 424.5 2330.57 424.5 2335.5 429.425 2335.5 435.5Z" stroke="#196B24" stroke-width="3.4375" stroke-linejoin="round" stroke-miterlimit="10" fill="#196B24"/><path d="M2305.5 442.5C2305.5 448.574 2300.57 453.499 2294.5 453.499 2288.42 453.499 2283.5 448.574 2283.5 442.5 2283.5 436.425 2288.42 431.5 2294.5 431.5 2300.57 431.5 2305.5 436.425 2305.5 442.5Z" stroke="#196B24" stroke-width="3.4375" stroke-linejoin="round" stroke-miterlimit="10" fill="#196B24"/><path d="M2275.5 453.5C2275.5 459.574 2270.57 464.499 2264.5 464.499 2258.42 464.499 2253.5 459.574 2253.5 453.5 2253.5 447.425 2258.42 442.5 2264.5 442.5 2270.57 442.5 2275.5 447.425 2275.5 453.5Z" stroke="#196B24" stroke-width="3.4375" stroke-linejoin="round" stroke-miterlimit="10" fill="#196B24"/><path d="M2245.5 465.5C2245.5 471.574 2240.57 476.499 2234.5 476.499 2228.42 476.499 2223.5 471.574 2223.5 465.5 2223.5 459.425 2228.42 454.5 2234.5 454.5 2240.57 454.5 2245.5 459.425 2245.5 465.5Z" stroke="#196B24" stroke-width="3.4375" stroke-linejoin="round" stroke-miterlimit="10" fill="#196B24"/><path d="M2214.5 480.5C2214.5 486.575 2209.57 491.499 2203.5 491.499 2197.42 491.499 2192.5 486.575 2192.5 480.5 2192.5 474.425 2197.42 469.5 2203.5 469.5 2209.57 469.5 2214.5 474.425 2214.5 480.5Z" stroke="#196B24" stroke-width="3.4375" stroke-linejoin="round" stroke-miterlimit="10" fill="#196B24"/><path d="M2184.5 497.5C2184.5 503.574 2179.57 508.499 2173.5 508.499 2167.42 508.499 2162.5 503.574 2162.5 497.5 2162.5 491.425 2167.42 486.5 2173.5 486.5 2179.57 486.5 2184.5 491.425 2184.5 497.5Z" stroke="#196B24" stroke-width="3.4375" stroke-linejoin="round" stroke-miterlimit="10" fill="#196B24"/><path d="M2154.5 517.5C2154.5 523.575 2149.57 528.499 2143.5 528.499 2137.42 528.499 2132.5 523.575 2132.5 517.5 2132.5 511.425 2137.42 506.5 2143.5 506.5 2149.57 506.5 2154.5 511.425 2154.5 517.5Z" stroke="#196B24" stroke-width="3.4375" stroke-linejoin="round" stroke-miterlimit="10" fill="#196B24"/><path d="M2124.5 540.5C2124.5 546.574 2119.57 551.499 2113.5 551.499 2107.42 551.499 2102.5 546.574 2102.5 540.5 2102.5 534.425 2107.42 529.5 2113.5 529.5 2119.57 529.5 2124.5 534.425 2124.5 540.5Z" stroke="#196B24" stroke-width="3.4375" stroke-linejoin="round" stroke-miterlimit="10" fill="#196B24"/><path d="M2094.5 561.5C2094.5 567.575 2089.57 572.499 2083.5 572.499 2077.42 572.499 2072.5 567.575 2072.5 561.5 2072.5 555.425 2077.42 550.5 2083.5 550.5 2089.57 550.5 2094.5 555.425 2094.5 561.5Z" stroke="#196B24" stroke-width="3.4375" stroke-linejoin="round" stroke-miterlimit="10" fill="#196B24"/><path d="M2063.5 587.5C2063.5 593.575 2058.57 598.499 2052.5 598.499 2046.42 598.499 2041.5 593.575 2041.5 587.5 2041.5 581.425 2046.42 576.5 2052.5 576.5 2058.57 576.5 2063.5 581.425 2063.5 587.5Z" stroke="#196B24" stroke-width="3.4375" stroke-linejoin="round" stroke-miterlimit="10" fill="#196B24"/><path d="M2033.5 614.5C2033.5 620.575 2028.57 625.499 2022.5 625.499 2016.42 625.499 2011.5 620.575 2011.5 614.5 2011.5 608.425 2016.42 603.5 2022.5 603.5 2028.57 603.5 2033.5 608.425 2033.5 614.5Z" stroke="#196B24" stroke-width="3.4375" stroke-linejoin="round" stroke-miterlimit="10" fill="#196B24"/><path d="M2003.5 643.5C2003.5 649.575 1998.57 654.499 1992.5 654.499 1986.42 654.499 1981.5 649.575 1981.5 643.5 1981.5 637.425 1986.42 632.5 1992.5 632.5 1998.57 632.5 2003.5 637.425 2003.5 643.5Z" stroke="#196B24" stroke-width="3.4375" stroke-linejoin="round" stroke-miterlimit="10" fill="#196B24"/><path d="M1973.5 672.5C1973.5 678.574 1968.57 683.499 1962.5 683.499 1956.42 683.499 1951.5 678.574 1951.5 672.5 1951.5 666.425 1956.42 661.5 1962.5 661.5 1968.57 661.5 1973.5 666.425 1973.5 672.5Z" stroke="#196B24" stroke-width="3.4375" stroke-linejoin="round" stroke-miterlimit="10" fill="#196B24"/><path d="M1943.5 705.5C1943.5 711.574 1938.57 716.499 1932.5 716.499 1926.42 716.499 1921.5 711.574 1921.5 705.5 1921.5 699.425 1926.42 694.5 1932.5 694.5 1938.57 694.5 1943.5 699.425 1943.5 705.5Z" stroke="#196B24" stroke-width="3.4375" stroke-linejoin="round" stroke-miterlimit="10" fill="#196B24"/><path d="M1912.5 743.5C1912.5 749.575 1907.57 754.499 1901.5 754.499 1895.42 754.499 1890.5 749.575 1890.5 743.5 1890.5 737.425 1895.42 732.5 1901.5 732.5 1907.57 732.5 1912.5 737.425 1912.5 743.5Z" stroke="#196B24" stroke-width="3.4375" stroke-linejoin="round" stroke-miterlimit="10" fill="#196B24"/><path d="M1882.5 769.5C1882.5 775.575 1877.57 780.499 1871.5 780.499 1865.42 780.499 1860.5 775.575 1860.5 769.5 1860.5 763.425 1865.42 758.5 1871.5 758.5 1877.57 758.5 1882.5 763.425 1882.5 769.5Z" stroke="#196B24" stroke-width="3.4375" stroke-linejoin="round" stroke-miterlimit="10" fill="#196B24"/><path d="M1852.5 804.5C1852.5 810.574 1847.57 815.499 1841.5 815.499 1835.42 815.499 1830.5 810.574 1830.5 804.5 1830.5 798.425 1835.42 793.5 1841.5 793.5 1847.57 793.5 1852.5 798.425 1852.5 804.5Z" stroke="#196B24" stroke-width="3.4375" stroke-linejoin="round" stroke-miterlimit="10" fill="#196B24"/><path d="M1822.5 842.5C1822.5 848.575 1817.57 853.499 1811.5 853.499 1805.42 853.499 1800.5 848.575 1800.5 842.5 1800.5 836.425 1805.42 831.5 1811.5 831.5 1817.57 831.5 1822.5 836.425 1822.5 842.5Z" stroke="#196B24" stroke-width="3.4375" stroke-linejoin="round" stroke-miterlimit="10" fill="#196B24"/><path d="M1792.5 875.5C1792.5 881.575 1787.57 886.499 1781.5 886.499 1775.42 886.499 1770.5 881.575 1770.5 875.5 1770.5 869.425 1775.42 864.5 1781.5 864.5 1787.57 864.5 1792.5 869.425 1792.5 875.5Z" stroke="#196B24" stroke-width="3.4375" stroke-linejoin="round" stroke-miterlimit="10" fill="#196B24"/><path d="M1761.5 916.5C1761.5 922.575 1756.57 927.499 1750.5 927.499 1744.42 927.499 1739.5 922.575 1739.5 916.5 1739.5 910.425 1744.42 905.5 1750.5 905.5 1756.57 905.5 1761.5 910.425 1761.5 916.5Z" stroke="#196B24" stroke-width="3.4375" stroke-linejoin="round" stroke-miterlimit="10" fill="#196B24"/><path d="M1731.5 956.5C1731.5 962.575 1726.57 967.499 1720.5 967.499 1714.42 967.499 1709.5 962.575 1709.5 956.5 1709.5 950.425 1714.42 945.5 1720.5 945.5 1726.57 945.5 1731.5 950.425 1731.5 956.5Z" stroke="#196B24" stroke-width="3.4375" stroke-linejoin="round" stroke-miterlimit="10" fill="#196B24"/><path d="M1701.5 990.5C1701.5 996.575 1696.57 1001.5 1690.5 1001.5 1684.42 1001.5 1679.5 996.575 1679.5 990.5 1679.5 984.425 1684.42 979.5 1690.5 979.5 1696.57 979.5 1701.5 984.425 1701.5 990.5Z" stroke="#196B24" stroke-width="3.4375" stroke-linejoin="round" stroke-miterlimit="10" fill="#196B24"/><path d="M1671.5 1032.5C1671.5 1038.57 1666.57 1043.5 1660.5 1043.5 1654.42 1043.5 1649.5 1038.57 1649.5 1032.5 1649.5 1026.42 1654.42 1021.5 1660.5 1021.5 1666.57 1021.5 1671.5 1026.42 1671.5 1032.5Z" stroke="#196B24" stroke-width="3.4375" stroke-linejoin="round" stroke-miterlimit="10" fill="#196B24"/><path d="M1641.5 1067.5C1641.5 1073.57 1636.57 1078.5 1630.5 1078.5 1624.42 1078.5 1619.5 1073.57 1619.5 1067.5 1619.5 1061.42 1624.42 1056.5 1630.5 1056.5 1636.57 1056.5 1641.5 1061.42 1641.5 1067.5Z" stroke="#196B24" stroke-width="3.4375" stroke-linejoin="round" stroke-miterlimit="10" fill="#196B24"/><path d="M1610.5 1104.5C1610.5 1110.57 1605.57 1115.5 1599.5 1115.5 1593.42 1115.5 1588.5 1110.57 1588.5 1104.5 1588.5 1098.42 1593.42 1093.5 1599.5 1093.5 1605.57 1093.5 1610.5 1098.42 1610.5 1104.5Z" stroke="#196B24" stroke-width="3.4375" stroke-linejoin="round" stroke-miterlimit="10" fill="#196B24"/><path d="M1580.5 1138.5C1580.5 1144.57 1575.57 1149.5 1569.5 1149.5 1563.42 1149.5 1558.5 1144.57 1558.5 1138.5 1558.5 1132.42 1563.42 1127.5 1569.5 1127.5 1575.57 1127.5 1580.5 1132.42 1580.5 1138.5Z" stroke="#196B24" stroke-width="3.4375" stroke-linejoin="round" stroke-miterlimit="10" fill="#196B24"/><path d="M1550.5 1174.5C1550.5 1180.57 1545.57 1185.5 1539.5 1185.5 1533.42 1185.5 1528.5 1180.57 1528.5 1174.5 1528.5 1168.42 1533.42 1163.5 1539.5 1163.5 1545.57 1163.5 1550.5 1168.42 1550.5 1174.5Z" stroke="#196B24" stroke-width="3.4375" stroke-linejoin="round" stroke-miterlimit="10" fill="#196B24"/><path d="M1520.5 1231.5C1520.5 1237.57 1515.57 1242.5 1509.5 1242.5 1503.42 1242.5 1498.5 1237.57 1498.5 1231.5 1498.5 1225.42 1503.42 1220.5 1509.5 1220.5 1515.57 1220.5 1520.5 1225.42 1520.5 1231.5Z" stroke="#196B24" stroke-width="3.4375" stroke-linejoin="round" stroke-miterlimit="10" fill="#196B24"/><path d="M1490.5 1269.5C1490.5 1275.57 1485.57 1280.5 1479.5 1280.5 1473.42 1280.5 1468.5 1275.57 1468.5 1269.5 1468.5 1263.42 1473.42 1258.5 1479.5 1258.5 1485.57 1258.5 1490.5 1263.42 1490.5 1269.5Z" stroke="#196B24" stroke-width="3.4375" stroke-linejoin="round" stroke-miterlimit="10" fill="#196B24"/><path d="M1459.5 1308.5C1459.5 1314.57 1454.57 1319.5 1448.5 1319.5 1442.42 1319.5 1437.5 1314.57 1437.5 1308.5 1437.5 1302.42 1442.42 1297.5 1448.5 1297.5 1454.57 1297.5 1459.5 1302.42 1459.5 1308.5Z" stroke="#196B24" stroke-width="3.4375" stroke-linejoin="round" stroke-miterlimit="10" fill="#196B24"/><path d="M1429.5 1338.5C1429.5 1344.57 1424.57 1349.5 1418.5 1349.5 1412.42 1349.5 1407.5 1344.57 1407.5 1338.5 1407.5 1332.42 1412.42 1327.5 1418.5 1327.5 1424.57 1327.5 1429.5 1332.42 1429.5 1338.5Z" stroke="#196B24" stroke-width="3.4375" stroke-linejoin="round" stroke-miterlimit="10" fill="#196B24"/><path d="M1399.5 1377.5C1399.5 1383.57 1394.57 1388.5 1388.5 1388.5 1382.42 1388.5 1377.5 1383.57 1377.5 1377.5 1377.5 1371.42 1382.42 1366.5 1388.5 1366.5 1394.57 1366.5 1399.5 1371.42 1399.5 1377.5Z" stroke="#196B24" stroke-width="3.4375" stroke-linejoin="round" stroke-miterlimit="10" fill="#196B24"/><path d="M1369.5 1409.5C1369.5 1415.57 1364.57 1420.5 1358.5 1420.5 1352.42 1420.5 1347.5 1415.57 1347.5 1409.5 1347.5 1403.42 1352.42 1398.5 1358.5 1398.5 1364.57 1398.5 1369.5 1403.42 1369.5 1409.5Z" stroke="#196B24" stroke-width="3.4375" stroke-linejoin="round" stroke-miterlimit="10" fill="#196B24"/><path d="M1339.5 1445.5C1339.5 1451.57 1334.57 1456.5 1328.5 1456.5 1322.42 1456.5 1317.5 1451.57 1317.5 1445.5 1317.5 1439.42 1322.42 1434.5 1328.5 1434.5 1334.57 1434.5 1339.5 1439.42 1339.5 1445.5Z" stroke="#196B24" stroke-width="3.4375" stroke-linejoin="round" stroke-miterlimit="10" fill="#196B24"/><path d="M1308.5 1472.5C1308.5 1478.57 1303.57 1483.5 1297.5 1483.5 1291.42 1483.5 1286.5 1478.57 1286.5 1472.5 1286.5 1466.42 1291.42 1461.5 1297.5 1461.5 1303.57 1461.5 1308.5 1466.42 1308.5 1472.5Z" stroke="#196B24" stroke-width="3.4375" stroke-linejoin="round" stroke-miterlimit="10" fill="#196B24"/><path d="M1278.5 1506.5C1278.5 1512.57 1273.57 1517.5 1267.5 1517.5 1261.42 1517.5 1256.5 1512.57 1256.5 1506.5 1256.5 1500.42 1261.42 1495.5 1267.5 1495.5 1273.57 1495.5 1278.5 1500.42 1278.5 1506.5Z" stroke="#196B24" stroke-width="3.4375" stroke-linejoin="round" stroke-miterlimit="10" fill="#196B24"/><path d="M1248.5 1535.5C1248.5 1541.57 1243.57 1546.5 1237.5 1546.5 1231.42 1546.5 1226.5 1541.57 1226.5 1535.5 1226.5 1529.42 1231.42 1524.5 1237.5 1524.5 1243.57 1524.5 1248.5 1529.42 1248.5 1535.5Z" stroke="#196B24" stroke-width="3.4375" stroke-linejoin="round" stroke-miterlimit="10" fill="#196B24"/><path d="M1218.5 1558.5C1218.5 1564.57 1213.57 1569.5 1207.5 1569.5 1201.42 1569.5 1196.5 1564.57 1196.5 1558.5 1196.5 1552.42 1201.42 1547.5 1207.5 1547.5 1213.57 1547.5 1218.5 1552.42 1218.5 1558.5Z" stroke="#196B24" stroke-width="3.4375" stroke-linejoin="round" stroke-miterlimit="10" fill="#196B24"/><path d="M1188.5 1584.5C1188.5 1590.57 1183.57 1595.5 1177.5 1595.5 1171.42 1595.5 1166.5 1590.57 1166.5 1584.5 1166.5 1578.42 1171.42 1573.5 1177.5 1573.5 1183.57 1573.5 1188.5 1578.42 1188.5 1584.5Z" stroke="#196B24" stroke-width="3.4375" stroke-linejoin="round" stroke-miterlimit="10" fill="#196B24"/><path d="M1157.5 1609.5C1157.5 1615.57 1152.57 1620.5 1146.5 1620.5 1140.42 1620.5 1135.5 1615.57 1135.5 1609.5 1135.5 1603.42 1140.42 1598.5 1146.5 1598.5 1152.57 1598.5 1157.5 1603.42 1157.5 1609.5Z" stroke="#196B24" stroke-width="3.4375" stroke-linejoin="round" stroke-miterlimit="10" fill="#196B24"/><path d="M1127.5 1628.5C1127.5 1634.57 1122.57 1639.5 1116.5 1639.5 1110.42 1639.5 1105.5 1634.57 1105.5 1628.5 1105.5 1622.42 1110.42 1617.5 1116.5 1617.5 1122.57 1617.5 1127.5 1622.42 1127.5 1628.5Z" stroke="#196B24" stroke-width="3.4375" stroke-linejoin="round" stroke-miterlimit="10" fill="#196B24"/><path d="M1097.5 1647.5C1097.5 1653.57 1092.57 1658.5 1086.5 1658.5 1080.42 1658.5 1075.5 1653.57 1075.5 1647.5 1075.5 1641.42 1080.42 1636.5 1086.5 1636.5 1092.57 1636.5 1097.5 1641.42 1097.5 1647.5Z" stroke="#196B24" stroke-width="3.4375" stroke-linejoin="round" stroke-miterlimit="10" fill="#196B24"/><path d="M1067.5 1664.5C1067.5 1670.57 1062.57 1675.5 1056.5 1675.5 1050.42 1675.5 1045.5 1670.57 1045.5 1664.5 1045.5 1658.42 1050.42 1653.5 1056.5 1653.5 1062.57 1653.5 1067.5 1658.42 1067.5 1664.5Z" stroke="#196B24" stroke-width="3.4375" stroke-linejoin="round" stroke-miterlimit="10" fill="#196B24"/><path d="M1037.5 1680.5C1037.5 1686.57 1032.57 1691.5 1026.5 1691.5 1020.42 1691.5 1015.5 1686.57 1015.5 1680.5 1015.5 1674.42 1020.42 1669.5 1026.5 1669.5 1032.57 1669.5 1037.5 1674.42 1037.5 1680.5Z" stroke="#196B24" stroke-width="3.4375" stroke-linejoin="round" stroke-miterlimit="10" fill="#196B24"/><path d="M1006.5 1690.5C1006.5 1696.57 1001.57 1701.5 995.5 1701.5 989.425 1701.5 984.5 1696.57 984.5 1690.5 984.5 1684.42 989.425 1679.5 995.5 1679.5 1001.57 1679.5 1006.5 1684.42 1006.5 1690.5Z" stroke="#196B24" stroke-width="3.4375" stroke-linejoin="round" stroke-miterlimit="10" fill="#196B24"/><path d="M976.499 1700.5C976.499 1706.57 971.575 1711.5 965.5 1711.5 959.425 1711.5 954.5 1706.57 954.5 1700.5 954.5 1694.42 959.425 1689.5 965.5 1689.5 971.575 1689.5 976.499 1694.42 976.499 1700.5Z" stroke="#196B24" stroke-width="3.4375" stroke-linejoin="round" stroke-miterlimit="10" fill="#196B24"/><path d="M946.499 1707.5C946.499 1713.57 941.575 1718.5 935.5 1718.5 929.425 1718.5 924.5 1713.57 924.5 1707.5 924.5 1701.42 929.425 1696.5 935.5 1696.5 941.575 1696.5 946.499 1701.42 946.499 1707.5Z" stroke="#196B24" stroke-width="3.4375" stroke-linejoin="round" stroke-miterlimit="10" fill="#196B24"/><path d="M916.499 1711.5C916.499 1717.57 911.575 1722.5 905.5 1722.5 899.425 1722.5 894.5 1717.57 894.5 1711.5 894.5 1705.42 899.425 1700.5 905.5 1700.5 911.575 1700.5 916.499 1705.42 916.499 1711.5Z" stroke="#196B24" stroke-width="3.4375" stroke-linejoin="round" stroke-miterlimit="10" fill="#196B24"/><path d="M886.499 1713.5C886.499 1719.57 881.575 1724.5 875.5 1724.5 869.425 1724.5 864.5 1719.57 864.5 1713.5 864.5 1707.42 869.425 1702.5 875.5 1702.5 881.575 1702.5 886.499 1707.42 886.499 1713.5Z" stroke="#196B24" stroke-width="3.4375" stroke-linejoin="round" stroke-miterlimit="10" fill="#196B24"/><path d="M855.499 1714.5C855.499 1720.57 850.575 1725.5 844.5 1725.5 838.425 1725.5 833.5 1720.57 833.5 1714.5 833.5 1708.42 838.425 1703.5 844.5 1703.5 850.575 1703.5 855.499 1708.42 855.499 1714.5Z" stroke="#196B24" stroke-width="3.4375" stroke-linejoin="round" stroke-miterlimit="10" fill="#196B24"/><path d="M825.499 1714.5C825.499 1720.57 820.575 1725.5 814.5 1725.5 808.425 1725.5 803.5 1720.57 803.5 1714.5 803.5 1708.42 808.425 1703.5 814.5 1703.5 820.575 1703.5 825.499 1708.42 825.499 1714.5Z" stroke="#196B24" stroke-width="3.4375" stroke-linejoin="round" stroke-miterlimit="10" fill="#196B24"/><path d="M795.499 1713.5C795.499 1719.57 790.575 1724.5 784.5 1724.5 778.425 1724.5 773.5 1719.57 773.5 1713.5 773.5 1707.42 778.425 1702.5 784.5 1702.5 790.575 1702.5 795.499 1707.42 795.499 1713.5Z" stroke="#196B24" stroke-width="3.4375" stroke-linejoin="round" stroke-miterlimit="10" fill="#196B24"/><path d="M765.499 1710.5C765.499 1716.57 760.575 1721.5 754.5 1721.5 748.425 1721.5 743.5 1716.57 743.5 1710.5 743.5 1704.42 748.425 1699.5 754.5 1699.5 760.575 1699.5 765.499 1704.42 765.499 1710.5Z" stroke="#196B24" stroke-width="3.4375" stroke-linejoin="round" stroke-miterlimit="10" fill="#196B24"/><path d="M735.499 1706.5C735.499 1712.57 730.575 1717.5 724.5 1717.5 718.425 1717.5 713.5 1712.57 713.5 1706.5 713.5 1700.42 718.425 1695.5 724.5 1695.5 730.575 1695.5 735.499 1700.42 735.499 1706.5Z" stroke="#196B24" stroke-width="3.4375" stroke-linejoin="round" stroke-miterlimit="10" fill="#196B24"/><path d="M704.499 1702.5C704.499 1708.57 699.575 1713.5 693.5 1713.5 687.425 1713.5 682.5 1708.57 682.5 1702.5 682.5 1696.42 687.425 1691.5 693.5 1691.5 699.575 1691.5 704.499 1696.42 704.499 1702.5Z" stroke="#196B24" stroke-width="3.4375" stroke-linejoin="round" stroke-miterlimit="10" fill="#196B24"/><path d="M674.499 1697.5C674.499 1703.57 669.575 1708.5 663.5 1708.5 657.425 1708.5 652.5 1703.57 652.5 1697.5 652.5 1691.42 657.425 1686.5 663.5 1686.5 669.575 1686.5 674.499 1691.42 674.499 1697.5Z" stroke="#196B24" stroke-width="3.4375" stroke-linejoin="round" stroke-miterlimit="10" fill="#196B24"/><path d="M644.499 1691.5C644.499 1697.57 639.575 1702.5 633.5 1702.5 627.425 1702.5 622.5 1697.57 622.5 1691.5 622.5 1685.42 627.425 1680.5 633.5 1680.5 639.575 1680.5 644.499 1685.42 644.499 1691.5Z" stroke="#196B24" stroke-width="3.4375" stroke-linejoin="round" stroke-miterlimit="10" fill="#196B24"/><path d="M614.499 1683.5C614.499 1689.57 609.575 1694.5 603.5 1694.5 597.425 1694.5 592.5 1689.57 592.5 1683.5 592.5 1677.42 597.425 1672.5 603.5 1672.5 609.575 1672.5 614.499 1677.42 614.499 1683.5Z" stroke="#196B24" stroke-width="3.4375" stroke-linejoin="round" stroke-miterlimit="10" fill="#196B24"/><path d="M584.499 1677.5C584.499 1683.57 579.574 1688.5 573.5 1688.5 567.425 1688.5 562.5 1683.57 562.5 1677.5 562.5 1671.42 567.425 1666.5 573.5 1666.5 579.574 1666.5 584.499 1671.42 584.499 1677.5Z" stroke="#196B24" stroke-width="3.4375" stroke-linejoin="round" stroke-miterlimit="10" fill="#196B24"/><path d="M553.499 1670.5C553.499 1676.57 548.575 1681.5 542.5 1681.5 536.425 1681.5 531.5 1676.57 531.5 1670.5 531.5 1664.42 536.425 1659.5 542.5 1659.5 548.575 1659.5 553.499 1664.42 553.499 1670.5Z" stroke="#196B24" stroke-width="3.4375" stroke-linejoin="round" stroke-miterlimit="10" fill="#196B24"/><path d="M523.499 1660.5C523.499 1666.57 518.575 1671.5 512.5 1671.5 506.425 1671.5 501.5 1666.57 501.5 1660.5 501.5 1654.42 506.425 1649.5 512.5 1649.5 518.575 1649.5 523.499 1654.42 523.499 1660.5Z" stroke="#196B24" stroke-width="3.4375" stroke-linejoin="round" stroke-miterlimit="10" fill="#196B24"/></g><g><path d="M2758.5 1665.5C2758.5 1671.57 2753.57 1676.5 2747.5 1676.5 2741.42 1676.5 2736.5 1671.57 2736.5 1665.5 2736.5 1659.42 2741.42 1654.5 2747.5 1654.5 2753.57 1654.5 2758.5 1659.42 2758.5 1665.5Z" stroke="#E97132" stroke-width="3.4375" stroke-linejoin="round" stroke-miterlimit="10" fill="#E97132"/><path d="M2728.5 1679.5C2728.5 1685.57 2723.57 1690.5 2717.5 1690.5 2711.42 1690.5 2706.5 1685.57 2706.5 1679.5 2706.5 1673.42 2711.42 1668.5 2717.5 1668.5 2723.57 1668.5 2728.5 1673.42 2728.5 1679.5Z" stroke="#E97132" stroke-width="3.4375" stroke-linejoin="round" stroke-miterlimit="10" fill="#E97132"/><path d="M2698.5 1688.5C2698.5 1694.57 2693.57 1699.5 2687.5 1699.5 2681.42 1699.5 2676.5 1694.57 2676.5 1688.5 2676.5 1682.42 2681.42 1677.5 2687.5 1677.5 2693.57 1677.5 2698.5 1682.42 2698.5 1688.5Z" stroke="#E97132" stroke-width="3.4375" stroke-linejoin="round" stroke-miterlimit="10" fill="#E97132"/><path d="M2667.5 1696.5C2667.5 1702.57 2662.57 1707.5 2656.5 1707.5 2650.42 1707.5 2645.5 1702.57 2645.5 1696.5 2645.5 1690.42 2650.42 1685.5 2656.5 1685.5 2662.57 1685.5 2667.5 1690.42 2667.5 1696.5Z" stroke="#E97132" stroke-width="3.4375" stroke-linejoin="round" stroke-miterlimit="10" fill="#E97132"/><path d="M2637.5 1703.5C2637.5 1709.57 2632.57 1714.5 2626.5 1714.5 2620.42 1714.5 2615.5 1709.57 2615.5 1703.5 2615.5 1697.42 2620.42 1692.5 2626.5 1692.5 2632.57 1692.5 2637.5 1697.42 2637.5 1703.5Z" stroke="#E97132" stroke-width="3.4375" stroke-linejoin="round" stroke-miterlimit="10" fill="#E97132"/><path d="M2607.5 1710.5C2607.5 1716.57 2602.57 1721.5 2596.5 1721.5 2590.42 1721.5 2585.5 1716.57 2585.5 1710.5 2585.5 1704.42 2590.42 1699.5 2596.5 1699.5 2602.57 1699.5 2607.5 1704.42 2607.5 1710.5Z" stroke="#E97132" stroke-width="3.4375" stroke-linejoin="round" stroke-miterlimit="10" fill="#E97132"/><path d="M2577.5 1716.5C2577.5 1722.57 2572.57 1727.5 2566.5 1727.5 2560.42 1727.5 2555.5 1722.57 2555.5 1716.5 2555.5 1710.42 2560.42 1705.5 2566.5 1705.5 2572.57 1705.5 2577.5 1710.42 2577.5 1716.5Z" stroke="#E97132" stroke-width="3.4375" stroke-linejoin="round" stroke-miterlimit="10" fill="#E97132"/><path d="M2547.5 1721.5C2547.5 1727.57 2542.57 1732.5 2536.5 1732.5 2530.42 1732.5 2525.5 1727.57 2525.5 1721.5 2525.5 1715.42 2530.42 1710.5 2536.5 1710.5 2542.57 1710.5 2547.5 1715.42 2547.5 1721.5Z" stroke="#E97132" stroke-width="3.4375" stroke-linejoin="round" stroke-miterlimit="10" fill="#E97132"/><path d="M2516.5 1725.5C2516.5 1731.57 2511.57 1736.5 2505.5 1736.5 2499.42 1736.5 2494.5 1731.57 2494.5 1725.5 2494.5 1719.42 2499.42 1714.5 2505.5 1714.5 2511.57 1714.5 2516.5 1719.42 2516.5 1725.5Z" stroke="#E97132" stroke-width="3.4375" stroke-linejoin="round" stroke-miterlimit="10" fill="#E97132"/><path d="M2486.5 1728.5C2486.5 1734.57 2481.57 1739.5 2475.5 1739.5 2469.42 1739.5 2464.5 1734.57 2464.5 1728.5 2464.5 1722.42 2469.42 1717.5 2475.5 1717.5 2481.57 1717.5 2486.5 1722.42 2486.5 1728.5Z" stroke="#E97132" stroke-width="3.4375" stroke-linejoin="round" stroke-miterlimit="10" fill="#E97132"/><path d="M2456.5 1730.5C2456.5 1736.57 2451.57 1741.5 2445.5 1741.5 2439.42 1741.5 2434.5 1736.57 2434.5 1730.5 2434.5 1724.42 2439.42 1719.5 2445.5 1719.5 2451.57 1719.5 2456.5 1724.42 2456.5 1730.5Z" stroke="#E97132" stroke-width="3.4375" stroke-linejoin="round" stroke-miterlimit="10" fill="#E97132"/><path d="M2426.5 1730.5C2426.5 1736.57 2421.57 1741.5 2415.5 1741.5 2409.42 1741.5 2404.5 1736.57 2404.5 1730.5 2404.5 1724.42 2409.42 1719.5 2415.5 1719.5 2421.57 1719.5 2426.5 1724.42 2426.5 1730.5Z" stroke="#E97132" stroke-width="3.4375" stroke-linejoin="round" stroke-miterlimit="10" fill="#E97132"/><path d="M2396.5 1729.5C2396.5 1735.57 2391.57 1740.5 2385.5 1740.5 2379.42 1740.5 2374.5 1735.57 2374.5 1729.5 2374.5 1723.42 2379.42 1718.5 2385.5 1718.5 2391.57 1718.5 2396.5 1723.42 2396.5 1729.5Z" stroke="#E97132" stroke-width="3.4375" stroke-linejoin="round" stroke-miterlimit="10" fill="#E97132"/><path d="M2365.5 1727.5C2365.5 1733.57 2360.57 1738.5 2354.5 1738.5 2348.42 1738.5 2343.5 1733.57 2343.5 1727.5 2343.5 1721.42 2348.42 1716.5 2354.5 1716.5 2360.57 1716.5 2365.5 1721.42 2365.5 1727.5Z" stroke="#E97132" stroke-width="3.4375" stroke-linejoin="round" stroke-miterlimit="10" fill="#E97132"/><path d="M2335.5 1722.5C2335.5 1728.57 2330.57 1733.5 2324.5 1733.5 2318.42 1733.5 2313.5 1728.57 2313.5 1722.5 2313.5 1716.42 2318.42 1711.5 2324.5 1711.5 2330.57 1711.5 2335.5 1716.42 2335.5 1722.5Z" stroke="#E97132" stroke-width="3.4375" stroke-linejoin="round" stroke-miterlimit="10" fill="#E97132"/><path d="M2305.5 1715.5C2305.5 1721.57 2300.57 1726.5 2294.5 1726.5 2288.42 1726.5 2283.5 1721.57 2283.5 1715.5 2283.5 1709.42 2288.42 1704.5 2294.5 1704.5 2300.57 1704.5 2305.5 1709.42 2305.5 1715.5Z" stroke="#E97132" stroke-width="3.4375" stroke-linejoin="round" stroke-miterlimit="10" fill="#E97132"/><path d="M2275.5 1704.5C2275.5 1710.57 2270.57 1715.5 2264.5 1715.5 2258.42 1715.5 2253.5 1710.57 2253.5 1704.5 2253.5 1698.42 2258.42 1693.5 2264.5 1693.5 2270.57 1693.5 2275.5 1698.42 2275.5 1704.5Z" stroke="#E97132" stroke-width="3.4375" stroke-linejoin="round" stroke-miterlimit="10" fill="#E97132"/><path d="M2245.5 1693.5C2245.5 1699.57 2240.57 1704.5 2234.5 1704.5 2228.42 1704.5 2223.5 1699.57 2223.5 1693.5 2223.5 1687.42 2228.42 1682.5 2234.5 1682.5 2240.57 1682.5 2245.5 1687.42 2245.5 1693.5Z" stroke="#E97132" stroke-width="3.4375" stroke-linejoin="round" stroke-miterlimit="10" fill="#E97132"/><path d="M2214.5 1678.5C2214.5 1684.57 2209.57 1689.5 2203.5 1689.5 2197.42 1689.5 2192.5 1684.57 2192.5 1678.5 2192.5 1672.42 2197.42 1667.5 2203.5 1667.5 2209.57 1667.5 2214.5 1672.42 2214.5 1678.5Z" stroke="#E97132" stroke-width="3.4375" stroke-linejoin="round" stroke-miterlimit="10" fill="#E97132"/><path d="M2184.5 1660.5C2184.5 1666.57 2179.57 1671.5 2173.5 1671.5 2167.42 1671.5 2162.5 1666.57 2162.5 1660.5 2162.5 1654.42 2167.42 1649.5 2173.5 1649.5 2179.57 1649.5 2184.5 1654.42 2184.5 1660.5Z" stroke="#E97132" stroke-width="3.4375" stroke-linejoin="round" stroke-miterlimit="10" fill="#E97132"/><path d="M2154.5 1640.5C2154.5 1646.57 2149.57 1651.5 2143.5 1651.5 2137.42 1651.5 2132.5 1646.57 2132.5 1640.5 2132.5 1634.42 2137.42 1629.5 2143.5 1629.5 2149.57 1629.5 2154.5 1634.42 2154.5 1640.5Z" stroke="#E97132" stroke-width="3.4375" stroke-linejoin="round" stroke-miterlimit="10" fill="#E97132"/><path d="M2124.5 1617.5C2124.5 1623.57 2119.57 1628.5 2113.5 1628.5 2107.42 1628.5 2102.5 1623.57 2102.5 1617.5 2102.5 1611.42 2107.42 1606.5 2113.5 1606.5 2119.57 1606.5 2124.5 1611.42 2124.5 1617.5Z" stroke="#E97132" stroke-width="3.4375" stroke-linejoin="round" stroke-miterlimit="10" fill="#E97132"/><path d="M2094.5 1595.5C2094.5 1601.57 2089.57 1606.5 2083.5 1606.5 2077.42 1606.5 2072.5 1601.57 2072.5 1595.5 2072.5 1589.42 2077.42 1584.5 2083.5 1584.5 2089.57 1584.5 2094.5 1589.42 2094.5 1595.5Z" stroke="#E97132" stroke-width="3.4375" stroke-linejoin="round" stroke-miterlimit="10" fill="#E97132"/><path d="M2063.5 1568.5C2063.5 1574.57 2058.57 1579.5 2052.5 1579.5 2046.42 1579.5 2041.5 1574.57 2041.5 1568.5 2041.5 1562.42 2046.42 1557.5 2052.5 1557.5 2058.57 1557.5 2063.5 1562.42 2063.5 1568.5Z" stroke="#E97132" stroke-width="3.4375" stroke-linejoin="round" stroke-miterlimit="10" fill="#E97132"/><path d="M2033.5 1540.5C2033.5 1546.57 2028.57 1551.5 2022.5 1551.5 2016.42 1551.5 2011.5 1546.57 2011.5 1540.5 2011.5 1534.42 2016.42 1529.5 2022.5 1529.5 2028.57 1529.5 2033.5 1534.42 2033.5 1540.5Z" stroke="#E97132" stroke-width="3.4375" stroke-linejoin="round" stroke-miterlimit="10" fill="#E97132"/><path d="M2003.5 1512.5C2003.5 1518.57 1998.57 1523.5 1992.5 1523.5 1986.42 1523.5 1981.5 1518.57 1981.5 1512.5 1981.5 1506.42 1986.42 1501.5 1992.5 1501.5 1998.57 1501.5 2003.5 1506.42 2003.5 1512.5Z" stroke="#E97132" stroke-width="3.4375" stroke-linejoin="round" stroke-miterlimit="10" fill="#E97132"/><path d="M1973.5 1482.5C1973.5 1488.57 1968.57 1493.5 1962.5 1493.5 1956.42 1493.5 1951.5 1488.57 1951.5 1482.5 1951.5 1476.42 1956.42 1471.5 1962.5 1471.5 1968.57 1471.5 1973.5 1476.42 1973.5 1482.5Z" stroke="#E97132" stroke-width="3.4375" stroke-linejoin="round" stroke-miterlimit="10" fill="#E97132"/><path d="M1943.5 1448.5C1943.5 1454.57 1938.57 1459.5 1932.5 1459.5 1926.42 1459.5 1921.5 1454.57 1921.5 1448.5 1921.5 1442.42 1926.42 1437.5 1932.5 1437.5 1938.57 1437.5 1943.5 1442.42 1943.5 1448.5Z" stroke="#E97132" stroke-width="3.4375" stroke-linejoin="round" stroke-miterlimit="10" fill="#E97132"/><path d="M1912.5 1410.5C1912.5 1416.57 1907.57 1421.5 1901.5 1421.5 1895.42 1421.5 1890.5 1416.57 1890.5 1410.5 1890.5 1404.42 1895.42 1399.5 1901.5 1399.5 1907.57 1399.5 1912.5 1404.42 1912.5 1410.5Z" stroke="#E97132" stroke-width="3.4375" stroke-linejoin="round" stroke-miterlimit="10" fill="#E97132"/><path d="M1882.5 1384.5C1882.5 1390.57 1877.57 1395.5 1871.5 1395.5 1865.42 1395.5 1860.5 1390.57 1860.5 1384.5 1860.5 1378.42 1865.42 1373.5 1871.5 1373.5 1877.57 1373.5 1882.5 1378.42 1882.5 1384.5Z" stroke="#E97132" stroke-width="3.4375" stroke-linejoin="round" stroke-miterlimit="10" fill="#E97132"/><path d="M1852.5 1349.5C1852.5 1355.57 1847.57 1360.5 1841.5 1360.5 1835.42 1360.5 1830.5 1355.57 1830.5 1349.5 1830.5 1343.42 1835.42 1338.5 1841.5 1338.5 1847.57 1338.5 1852.5 1343.42 1852.5 1349.5Z" stroke="#E97132" stroke-width="3.4375" stroke-linejoin="round" stroke-miterlimit="10" fill="#E97132"/><path d="M1822.5 1311.5C1822.5 1317.57 1817.57 1322.5 1811.5 1322.5 1805.42 1322.5 1800.5 1317.57 1800.5 1311.5 1800.5 1305.42 1805.42 1300.5 1811.5 1300.5 1817.57 1300.5 1822.5 1305.42 1822.5 1311.5Z" stroke="#E97132" stroke-width="3.4375" stroke-linejoin="round" stroke-miterlimit="10" fill="#E97132"/><path d="M1792.5 1278.5C1792.5 1284.57 1787.57 1289.5 1781.5 1289.5 1775.42 1289.5 1770.5 1284.57 1770.5 1278.5 1770.5 1272.42 1775.42 1267.5 1781.5 1267.5 1787.57 1267.5 1792.5 1272.42 1792.5 1278.5Z" stroke="#E97132" stroke-width="3.4375" stroke-linejoin="round" stroke-miterlimit="10" fill="#E97132"/><path d="M1761.5 1238.5C1761.5 1244.57 1756.57 1249.5 1750.5 1249.5 1744.42 1249.5 1739.5 1244.57 1739.5 1238.5 1739.5 1232.42 1744.42 1227.5 1750.5 1227.5 1756.57 1227.5 1761.5 1232.42 1761.5 1238.5Z" stroke="#E97132" stroke-width="3.4375" stroke-linejoin="round" stroke-miterlimit="10" fill="#E97132"/><path d="M1731.5 1198.5C1731.5 1204.57 1726.57 1209.5 1720.5 1209.5 1714.42 1209.5 1709.5 1204.57 1709.5 1198.5 1709.5 1192.42 1714.42 1187.5 1720.5 1187.5 1726.57 1187.5 1731.5 1192.42 1731.5 1198.5Z" stroke="#E97132" stroke-width="3.4375" stroke-linejoin="round" stroke-miterlimit="10" fill="#E97132"/><path d="M1701.5 1166.5C1701.5 1172.57 1696.57 1177.5 1690.5 1177.5 1684.42 1177.5 1679.5 1172.57 1679.5 1166.5 1679.5 1160.42 1684.42 1155.5 1690.5 1155.5 1696.57 1155.5 1701.5 1160.42 1701.5 1166.5Z" stroke="#E97132" stroke-width="3.4375" stroke-linejoin="round" stroke-miterlimit="10" fill="#E97132"/><path d="M1671.5 1123.5C1671.5 1129.57 1666.57 1134.5 1660.5 1134.5 1654.42 1134.5 1649.5 1129.57 1649.5 1123.5 1649.5 1117.42 1654.42 1112.5 1660.5 1112.5 1666.57 1112.5 1671.5 1117.42 1671.5 1123.5Z" stroke="#E97132" stroke-width="3.4375" stroke-linejoin="round" stroke-miterlimit="10" fill="#E97132"/><path d="M1641.5 1090.5C1641.5 1096.57 1636.57 1101.5 1630.5 1101.5 1624.42 1101.5 1619.5 1096.57 1619.5 1090.5 1619.5 1084.42 1624.42 1079.5 1630.5 1079.5 1636.57 1079.5 1641.5 1084.42 1641.5 1090.5Z" stroke="#E97132" stroke-width="3.4375" stroke-linejoin="round" stroke-miterlimit="10" fill="#E97132"/><path d="M1610.5 1054.5C1610.5 1060.57 1605.57 1065.5 1599.5 1065.5 1593.42 1065.5 1588.5 1060.57 1588.5 1054.5 1588.5 1048.42 1593.42 1043.5 1599.5 1043.5 1605.57 1043.5 1610.5 1048.42 1610.5 1054.5Z" stroke="#E97132" stroke-width="3.4375" stroke-linejoin="round" stroke-miterlimit="10" fill="#E97132"/><path d="M1580.5 1020.5C1580.5 1026.57 1575.57 1031.5 1569.5 1031.5 1563.42 1031.5 1558.5 1026.57 1558.5 1020.5 1558.5 1014.42 1563.42 1009.5 1569.5 1009.5 1575.57 1009.5 1580.5 1014.42 1580.5 1020.5Z" stroke="#E97132" stroke-width="3.4375" stroke-linejoin="round" stroke-miterlimit="10" fill="#E97132"/><path d="M1550.5 985.5C1550.5 991.575 1545.57 996.499 1539.5 996.499 1533.42 996.499 1528.5 991.575 1528.5 985.5 1528.5 979.425 1533.42 974.5 1539.5 974.5 1545.57 974.5 1550.5 979.425 1550.5 985.5Z" stroke="#E97132" stroke-width="3.4375" stroke-linejoin="round" stroke-miterlimit="10" fill="#E97132"/><path d="M1520.5 930.5C1520.5 936.575 1515.57 941.499 1509.5 941.499 1503.42 941.499 1498.5 936.575 1498.5 930.5 1498.5 924.425 1503.42 919.5 1509.5 919.5 1515.57 919.5 1520.5 924.425 1520.5 930.5Z" stroke="#E97132" stroke-width="3.4375" stroke-linejoin="round" stroke-miterlimit="10" fill="#E97132"/><path d="M1490.5 892.5C1490.5 898.574 1485.57 903.499 1479.5 903.499 1473.42 903.499 1468.5 898.574 1468.5 892.5 1468.5 886.425 1473.42 881.5 1479.5 881.5 1485.57 881.5 1490.5 886.425 1490.5 892.5Z" stroke="#E97132" stroke-width="3.4375" stroke-linejoin="round" stroke-miterlimit="10" fill="#E97132"/><path d="M1459.5 854.5C1459.5 860.575 1454.57 865.499 1448.5 865.499 1442.42 865.499 1437.5 860.575 1437.5 854.5 1437.5 848.425 1442.42 843.5 1448.5 843.5 1454.57 843.5 1459.5 848.425 1459.5 854.5Z" stroke="#E97132" stroke-width="3.4375" stroke-linejoin="round" stroke-miterlimit="10" fill="#E97132"/><path d="M1429.5 823.5C1429.5 829.575 1424.57 834.499 1418.5 834.499 1412.42 834.499 1407.5 829.575 1407.5 823.5 1407.5 817.425 1412.42 812.5 1418.5 812.5 1424.57 812.5 1429.5 817.425 1429.5 823.5Z" stroke="#E97132" stroke-width="3.4375" stroke-linejoin="round" stroke-miterlimit="10" fill="#E97132"/><path d="M1399.5 785.5C1399.5 791.575 1394.57 796.499 1388.5 796.499 1382.42 796.499 1377.5 791.575 1377.5 785.5 1377.5 779.425 1382.42 774.5 1388.5 774.5 1394.57 774.5 1399.5 779.425 1399.5 785.5Z" stroke="#E97132" stroke-width="3.4375" stroke-linejoin="round" stroke-miterlimit="10" fill="#E97132"/><path d="M1369.5 752.5C1369.5 758.575 1364.57 763.499 1358.5 763.499 1352.42 763.499 1347.5 758.575 1347.5 752.5 1347.5 746.425 1352.42 741.5 1358.5 741.5 1364.57 741.5 1369.5 746.425 1369.5 752.5Z" stroke="#E97132" stroke-width="3.4375" stroke-linejoin="round" stroke-miterlimit="10" fill="#E97132"/><path d="M1339.5 717.5C1339.5 723.574 1334.57 728.499 1328.5 728.499 1322.42 728.499 1317.5 723.574 1317.5 717.5 1317.5 711.425 1322.42 706.5 1328.5 706.5 1334.57 706.5 1339.5 711.425 1339.5 717.5Z" stroke="#E97132" stroke-width="3.4375" stroke-linejoin="round" stroke-miterlimit="10" fill="#E97132"/><path d="M1308.5 689.5C1308.5 695.575 1303.57 700.499 1297.5 700.499 1291.42 700.499 1286.5 695.575 1286.5 689.5 1286.5 683.425 1291.42 678.5 1297.5 678.5 1303.57 678.5 1308.5 683.425 1308.5 689.5Z" stroke="#E97132" stroke-width="3.4375" stroke-linejoin="round" stroke-miterlimit="10" fill="#E97132"/><path d="M1278.5 655.5C1278.5 661.575 1273.57 666.499 1267.5 666.499 1261.42 666.499 1256.5 661.575 1256.5 655.5 1256.5 649.425 1261.42 644.5 1267.5 644.5 1273.57 644.5 1278.5 649.425 1278.5 655.5Z" stroke="#E97132" stroke-width="3.4375" stroke-linejoin="round" stroke-miterlimit="10" fill="#E97132"/><path d="M1248.5 626.5C1248.5 632.575 1243.57 637.499 1237.5 637.499 1231.42 637.499 1226.5 632.575 1226.5 626.5 1226.5 620.425 1231.42 615.5 1237.5 615.5 1243.57 615.5 1248.5 620.425 1248.5 626.5Z" stroke="#E97132" stroke-width="3.4375" stroke-linejoin="round" stroke-miterlimit="10" fill="#E97132"/><path d="M1218.5 604.5C1218.5 610.575 1213.57 615.499 1207.5 615.499 1201.42 615.499 1196.5 610.575 1196.5 604.5 1196.5 598.425 1201.42 593.5 1207.5 593.5 1213.57 593.5 1218.5 598.425 1218.5 604.5Z" stroke="#E97132" stroke-width="3.4375" stroke-linejoin="round" stroke-miterlimit="10" fill="#E97132"/><path d="M1188.5 577.5C1188.5 583.575 1183.57 588.499 1177.5 588.499 1171.42 588.499 1166.5 583.575 1166.5 577.5 1166.5 571.425 1171.42 566.5 1177.5 566.5 1183.57 566.5 1188.5 571.425 1188.5 577.5Z" stroke="#E97132" stroke-width="3.4375" stroke-linejoin="round" stroke-miterlimit="10" fill="#E97132"/><path d="M1157.5 553.5C1157.5 559.575 1152.57 564.499 1146.5 564.499 1140.42 564.499 1135.5 559.575 1135.5 553.5 1135.5 547.425 1140.42 542.5 1146.5 542.5 1152.57 542.5 1157.5 547.425 1157.5 553.5Z" stroke="#E97132" stroke-width="3.4375" stroke-linejoin="round" stroke-miterlimit="10" fill="#E97132"/><path d="M1127.5 533.5C1127.5 539.575 1122.57 544.499 1116.5 544.499 1110.42 544.499 1105.5 539.575 1105.5 533.5 1105.5 527.425 1110.42 522.5 1116.5 522.5 1122.57 522.5 1127.5 527.425 1127.5 533.5Z" stroke="#E97132" stroke-width="3.4375" stroke-linejoin="round" stroke-miterlimit="10" fill="#E97132"/><path d="M1097.5 514.5C1097.5 520.575 1092.57 525.499 1086.5 525.499 1080.42 525.499 1075.5 520.575 1075.5 514.5 1075.5 508.425 1080.42 503.5 1086.5 503.5 1092.57 503.5 1097.5 508.425 1097.5 514.5Z" stroke="#E97132" stroke-width="3.4375" stroke-linejoin="round" stroke-miterlimit="10" fill="#E97132"/><path d="M1067.5 497.5C1067.5 503.574 1062.57 508.499 1056.5 508.499 1050.42 508.499 1045.5 503.574 1045.5 497.5 1045.5 491.425 1050.42 486.5 1056.5 486.5 1062.57 486.5 1067.5 491.425 1067.5 497.5Z" stroke="#E97132" stroke-width="3.4375" stroke-linejoin="round" stroke-miterlimit="10" fill="#E97132"/><path d="M1037.5 481.5C1037.5 487.575 1032.57 492.499 1026.5 492.499 1020.42 492.499 1015.5 487.575 1015.5 481.5 1015.5 475.425 1020.42 470.5 1026.5 470.5 1032.57 470.5 1037.5 475.425 1037.5 481.5Z" stroke="#E97132" stroke-width="3.4375" stroke-linejoin="round" stroke-miterlimit="10" fill="#E97132"/><path d="M1006.5 470.5C1006.5 476.575 1001.57 481.499 995.5 481.499 989.425 481.499 984.5 476.575 984.5 470.5 984.5 464.425 989.425 459.5 995.5 459.5 1001.57 459.5 1006.5 464.425 1006.5 470.5Z" stroke="#E97132" stroke-width="3.4375" stroke-linejoin="round" stroke-miterlimit="10" fill="#E97132"/><path d="M976.499 459.5C976.499 465.575 971.575 470.499 965.5 470.499 959.425 470.499 954.5 465.575 954.5 459.5 954.5 453.425 959.425 448.5 965.5 448.5 971.575 448.5 976.499 453.425 976.499 459.5Z" stroke="#E97132" stroke-width="3.4375" stroke-linejoin="round" stroke-miterlimit="10" fill="#E97132"/><path d="M946.499 452.5C946.499 458.574 941.575 463.499 935.5 463.499 929.425 463.499 924.5 458.574 924.5 452.5 924.5 446.425 929.425 441.5 935.5 441.5 941.575 441.5 946.499 446.425 946.499 452.5Z" stroke="#E97132" stroke-width="3.4375" stroke-linejoin="round" stroke-miterlimit="10" fill="#E97132"/><path d="M916.499 447.5C916.499 453.575 911.575 458.499 905.5 458.499 899.425 458.499 894.5 453.575 894.5 447.5 894.5 441.425 899.425 436.5 905.5 436.5 911.575 436.5 916.499 441.425 916.499 447.5Z" stroke="#E97132" stroke-width="3.4375" stroke-linejoin="round" stroke-miterlimit="10" fill="#E97132"/><path d="M886.499 443.5C886.499 449.574 881.575 454.499 875.5 454.499 869.425 454.499 864.5 449.574 864.5 443.5 864.5 437.425 869.425 432.5 875.5 432.5 881.575 432.5 886.499 437.425 886.499 443.5Z" stroke="#E97132" stroke-width="3.4375" stroke-linejoin="round" stroke-miterlimit="10" fill="#E97132"/><path d="M855.499 441.5C855.499 447.574 850.575 452.499 844.5 452.499 838.425 452.499 833.5 447.574 833.5 441.5 833.5 435.425 838.425 430.5 844.5 430.5 850.575 430.5 855.499 435.425 855.499 441.5Z" stroke="#E97132" stroke-width="3.4375" stroke-linejoin="round" stroke-miterlimit="10" fill="#E97132"/><path d="M825.499 441.5C825.499 447.574 820.575 452.499 814.5 452.499 808.425 452.499 803.5 447.574 803.5 441.5 803.5 435.425 808.425 430.5 814.5 430.5 820.575 430.5 825.499 435.425 825.499 441.5Z" stroke="#E97132" stroke-width="3.4375" stroke-linejoin="round" stroke-miterlimit="10" fill="#E97132"/><path d="M795.499 442.5C795.499 448.574 790.575 453.499 784.5 453.499 778.425 453.499 773.5 448.574 773.5 442.5 773.5 436.425 778.425 431.5 784.5 431.5 790.575 431.5 795.499 436.425 795.499 442.5Z" stroke="#E97132" stroke-width="3.4375" stroke-linejoin="round" stroke-miterlimit="10" fill="#E97132"/><path d="M765.499 443.5C765.499 449.574 760.575 454.499 754.5 454.499 748.425 454.499 743.5 449.574 743.5 443.5 743.5 437.425 748.425 432.5 754.5 432.5 760.575 432.5 765.499 437.425 765.499 443.5Z" stroke="#E97132" stroke-width="3.4375" stroke-linejoin="round" stroke-miterlimit="10" fill="#E97132"/><path d="M735.499 446.5C735.499 452.575 730.575 457.499 724.5 457.499 718.425 457.499 713.5 452.575 713.5 446.5 713.5 440.425 718.425 435.5 724.5 435.5 730.575 435.5 735.499 440.425 735.499 446.5Z" stroke="#E97132" stroke-width="3.4375" stroke-linejoin="round" stroke-miterlimit="10" fill="#E97132"/><path d="M704.499 450.5C704.499 456.575 699.575 461.499 693.5 461.499 687.425 461.499 682.5 456.575 682.5 450.5 682.5 444.425 687.425 439.5 693.5 439.5 699.575 439.5 704.499 444.425 704.499 450.5Z" stroke="#E97132" stroke-width="3.4375" stroke-linejoin="round" stroke-miterlimit="10" fill="#E97132"/><path d="M674.499 454.5C674.499 460.574 669.575 465.499 663.5 465.499 657.425 465.499 652.5 460.574 652.5 454.5 652.5 448.425 657.425 443.5 663.5 443.5 669.575 443.5 674.499 448.425 674.499 454.5Z" stroke="#E97132" stroke-width="3.4375" stroke-linejoin="round" stroke-miterlimit="10" fill="#E97132"/><path d="M644.499 459.5C644.499 465.575 639.575 470.499 633.5 470.499 627.425 470.499 622.5 465.575 622.5 459.5 622.5 453.425 627.425 448.5 633.5 448.5 639.575 448.5 644.499 453.425 644.499 459.5Z" stroke="#E97132" stroke-width="3.4375" stroke-linejoin="round" stroke-miterlimit="10" fill="#E97132"/><path d="M614.499 466.5C614.499 472.575 609.575 477.499 603.5 477.499 597.425 477.499 592.5 472.575 592.5 466.5 592.5 460.425 597.425 455.5 603.5 455.5 609.575 455.5 614.499 460.425 614.499 466.5Z" stroke="#E97132" stroke-width="3.4375" stroke-linejoin="round" stroke-miterlimit="10" fill="#E97132"/><path d="M584.499 471.5C584.499 477.575 579.574 482.499 573.5 482.499 567.425 482.499 562.5 477.575 562.5 471.5 562.5 465.425 567.425 460.5 573.5 460.5 579.574 460.5 584.499 465.425 584.499 471.5Z" stroke="#E97132" stroke-width="3.4375" stroke-linejoin="round" stroke-miterlimit="10" fill="#E97132"/><path d="M553.499 479.5C553.499 485.575 548.575 490.499 542.5 490.499 536.425 490.499 531.5 485.575 531.5 479.5 531.5 473.425 536.425 468.5 542.5 468.5 548.575 468.5 553.499 473.425 553.499 479.5Z" stroke="#E97132" stroke-width="3.4375" stroke-linejoin="round" stroke-miterlimit="10" fill="#E97132"/><path d="M523.499 488.5C523.499 494.575 518.575 499.499 512.5 499.499 506.425 499.499 501.5 494.575 501.5 488.5 501.5 482.425 506.425 477.5 512.5 477.5 518.575 477.5 523.499 482.425 523.499 488.5Z" stroke="#E97132" stroke-width="3.4375" stroke-linejoin="round" stroke-miterlimit="10" fill="#E97132"/></g><g><path d="M2762.5 419C2762.5 427.56 2755.56 434.499 2747 434.499 2738.44 434.499 2731.5 427.56 2731.5 419 2731.5 410.439 2738.44 403.5 2747 403.5 2755.56 403.5 2762.5 410.439 2762.5 419Z" stroke="#0F9ED5" stroke-width="3.4375" stroke-linejoin="round" stroke-miterlimit="10" fill="#0F9ED5"/><path d="M2732.5 405C2732.5 413.56 2725.56 420.5 2717 420.5 2708.44 420.5 2701.5 413.56 2701.5 405 2701.5 396.44 2708.44 389.5 2717 389.5 2725.56 389.5 2732.5 396.44 2732.5 405Z" stroke="#0F9ED5" stroke-width="3.4375" stroke-linejoin="round" stroke-miterlimit="10" fill="#0F9ED5"/><path d="M2702.5 395C2702.5 403.56 2695.56 410.5 2687 410.5 2678.44 410.5 2671.5 403.56 2671.5 395 2671.5 386.44 2678.44 379.5 2687 379.5 2695.56 379.5 2702.5 386.44 2702.5 395Z" stroke="#0F9ED5" stroke-width="3.4375" stroke-linejoin="round" stroke-miterlimit="10" fill="#0F9ED5"/><path d="M2671.5 387C2671.5 395.56 2664.56 402.499 2656 402.499 2647.44 402.499 2640.5 395.56 2640.5 387 2640.5 378.44 2647.44 371.5 2656 371.5 2664.56 371.5 2671.5 378.44 2671.5 387Z" stroke="#0F9ED5" stroke-width="3.4375" stroke-linejoin="round" stroke-miterlimit="10" fill="#0F9ED5"/><path d="M2641.5 380C2641.5 388.56 2634.56 395.499 2626 395.499 2617.44 395.499 2610.5 388.56 2610.5 380 2610.5 371.44 2617.44 364.5 2626 364.5 2634.56 364.5 2641.5 371.44 2641.5 380Z" stroke="#0F9ED5" stroke-width="3.4375" stroke-linejoin="round" stroke-miterlimit="10" fill="#0F9ED5"/><path d="M2611.5 373C2611.5 381.56 2604.56 388.5 2596 388.5 2587.44 388.5 2580.5 381.56 2580.5 373 2580.5 364.44 2587.44 357.5 2596 357.5 2604.56 357.5 2611.5 364.44 2611.5 373Z" stroke="#0F9ED5" stroke-width="3.4375" stroke-linejoin="round" stroke-miterlimit="10" fill="#0F9ED5"/><path d="M2581.5 367C2581.5 375.56 2574.56 382.499 2566 382.499 2557.44 382.499 2550.5 375.56 2550.5 367 2550.5 358.44 2557.44 351.5 2566 351.5 2574.56 351.5 2581.5 358.44 2581.5 367Z" stroke="#0F9ED5" stroke-width="3.4375" stroke-linejoin="round" stroke-miterlimit="10" fill="#0F9ED5"/><path d="M2551.5 363C2551.5 371.56 2544.56 378.5 2536 378.5 2527.44 378.5 2520.5 371.56 2520.5 363 2520.5 354.44 2527.44 347.5 2536 347.5 2544.56 347.5 2551.5 354.44 2551.5 363Z" stroke="#0F9ED5" stroke-width="3.4375" stroke-linejoin="round" stroke-miterlimit="10" fill="#0F9ED5"/><path d="M2520.5 358C2520.5 366.56 2513.56 373.499 2505 373.499 2496.44 373.499 2489.5 366.56 2489.5 358 2489.5 349.44 2496.44 342.5 2505 342.5 2513.56 342.5 2520.5 349.44 2520.5 358Z" stroke="#0F9ED5" stroke-width="3.4375" stroke-linejoin="round" stroke-miterlimit="10" fill="#0F9ED5"/><path d="M2490.5 355C2490.5 363.56 2483.56 370.499 2475 370.499 2466.44 370.499 2459.5 363.56 2459.5 355 2459.5 346.44 2466.44 339.5 2475 339.5 2483.56 339.5 2490.5 346.44 2490.5 355Z" stroke="#0F9ED5" stroke-width="3.4375" stroke-linejoin="round" stroke-miterlimit="10" fill="#0F9ED5"/><path d="M2460.5 353C2460.5 361.56 2453.56 368.499 2445 368.499 2436.44 368.499 2429.5 361.56 2429.5 353 2429.5 344.439 2436.44 337.5 2445 337.5 2453.56 337.5 2460.5 344.439 2460.5 353Z" stroke="#0F9ED5" stroke-width="3.4375" stroke-linejoin="round" stroke-miterlimit="10" fill="#0F9ED5"/><path d="M2430.5 353C2430.5 361.56 2423.56 368.499 2415 368.499 2406.44 368.499 2399.5 361.56 2399.5 353 2399.5 344.439 2406.44 337.5 2415 337.5 2423.56 337.5 2430.5 344.439 2430.5 353Z" stroke="#0F9ED5" stroke-width="3.4375" stroke-linejoin="round" stroke-miterlimit="10" fill="#0F9ED5"/><path d="M2400.5 354C2400.5 362.56 2393.56 369.499 2385 369.499 2376.44 369.499 2369.5 362.56 2369.5 354 2369.5 345.44 2376.44 338.5 2385 338.5 2393.56 338.5 2400.5 345.44 2400.5 354Z" stroke="#0F9ED5" stroke-width="3.4375" stroke-linejoin="round" stroke-miterlimit="10" fill="#0F9ED5"/><path d="M2369.5 356C2369.5 364.56 2362.56 371.499 2354 371.499 2345.44 371.499 2338.5 364.56 2338.5 356 2338.5 347.44 2345.44 340.5 2354 340.5 2362.56 340.5 2369.5 347.44 2369.5 356Z" stroke="#0F9ED5" stroke-width="3.4375" stroke-linejoin="round" stroke-miterlimit="10" fill="#0F9ED5"/><path d="M2339.5 362C2339.5 370.56 2332.56 377.5 2324 377.5 2315.44 377.5 2308.5 370.56 2308.5 362 2308.5 353.44 2315.44 346.5 2324 346.5 2332.56 346.5 2339.5 353.44 2339.5 362Z" stroke="#0F9ED5" stroke-width="3.4375" stroke-linejoin="round" stroke-miterlimit="10" fill="#0F9ED5"/><path d="M2309.5 370C2309.5 378.56 2302.56 385.499 2294 385.499 2285.44 385.499 2278.5 378.56 2278.5 370 2278.5 361.44 2285.44 354.5 2294 354.5 2302.56 354.5 2309.5 361.44 2309.5 370Z" stroke="#0F9ED5" stroke-width="3.4375" stroke-linejoin="round" stroke-miterlimit="10" fill="#0F9ED5"/><path d="M2279.5 381C2279.5 389.56 2272.56 396.499 2264 396.499 2255.44 396.499 2248.5 389.56 2248.5 381 2248.5 372.44 2255.44 365.5 2264 365.5 2272.56 365.5 2279.5 372.44 2279.5 381Z" stroke="#0F9ED5" stroke-width="3.4375" stroke-linejoin="round" stroke-miterlimit="10" fill="#0F9ED5"/><path d="M2249.5 392C2249.5 400.56 2242.56 407.499 2234 407.499 2225.44 407.499 2218.5 400.56 2218.5 392 2218.5 383.44 2225.44 376.5 2234 376.5 2242.56 376.5 2249.5 383.44 2249.5 392Z" stroke="#0F9ED5" stroke-width="3.4375" stroke-linejoin="round" stroke-miterlimit="10" fill="#0F9ED5"/><path d="M2218.5 408C2218.5 416.56 2211.56 423.499 2203 423.499 2194.44 423.499 2187.5 416.56 2187.5 408 2187.5 399.439 2194.44 392.5 2203 392.5 2211.56 392.5 2218.5 399.439 2218.5 408Z" stroke="#0F9ED5" stroke-width="3.4375" stroke-linejoin="round" stroke-miterlimit="10" fill="#0F9ED5"/><path d="M2188.5 426C2188.5 434.56 2181.56 441.5 2173 441.5 2164.44 441.5 2157.5 434.56 2157.5 426 2157.5 417.44 2164.44 410.5 2173 410.5 2181.56 410.5 2188.5 417.44 2188.5 426Z" stroke="#0F9ED5" stroke-width="3.4375" stroke-linejoin="round" stroke-miterlimit="10" fill="#0F9ED5"/><path d="M2158.5 447C2158.5 455.56 2151.56 462.499 2143 462.499 2134.44 462.499 2127.5 455.56 2127.5 447 2127.5 438.44 2134.44 431.5 2143 431.5 2151.56 431.5 2158.5 438.44 2158.5 447Z" stroke="#0F9ED5" stroke-width="3.4375" stroke-linejoin="round" stroke-miterlimit="10" fill="#0F9ED5"/><path d="M2128.5 471C2128.5 479.56 2121.56 486.5 2113 486.5 2104.44 486.5 2097.5 479.56 2097.5 471 2097.5 462.44 2104.44 455.5 2113 455.5 2121.56 455.5 2128.5 462.44 2128.5 471Z" stroke="#0F9ED5" stroke-width="3.4375" stroke-linejoin="round" stroke-miterlimit="10" fill="#0F9ED5"/><path d="M2098.5 494C2098.5 502.56 2091.56 509.5 2083 509.5 2074.44 509.5 2067.5 502.56 2067.5 494 2067.5 485.44 2074.44 478.5 2083 478.5 2091.56 478.5 2098.5 485.44 2098.5 494Z" stroke="#0F9ED5" stroke-width="3.4375" stroke-linejoin="round" stroke-miterlimit="10" fill="#0F9ED5"/><path d="M2067.5 521C2067.5 529.56 2060.56 536.499 2052 536.499 2043.44 536.499 2036.5 529.56 2036.5 521 2036.5 512.44 2043.44 505.5 2052 505.5 2060.56 505.5 2067.5 512.44 2067.5 521Z" stroke="#0F9ED5" stroke-width="3.4375" stroke-linejoin="round" stroke-miterlimit="10" fill="#0F9ED5"/><path d="M2037.5 550C2037.5 558.56 2030.56 565.5 2022 565.5 2013.44 565.5 2006.5 558.56 2006.5 550 2006.5 541.44 2013.44 534.5 2022 534.5 2030.56 534.5 2037.5 541.44 2037.5 550Z" stroke="#0F9ED5" stroke-width="3.4375" stroke-linejoin="round" stroke-miterlimit="10" fill="#0F9ED5"/><path d="M2007.5 579C2007.5 587.56 2000.56 594.499 1992 594.499 1983.44 594.499 1976.5 587.56 1976.5 579 1976.5 570.44 1983.44 563.5 1992 563.5 2000.56 563.5 2007.5 570.44 2007.5 579Z" stroke="#0F9ED5" stroke-width="3.4375" stroke-linejoin="round" stroke-miterlimit="10" fill="#0F9ED5"/><path d="M1977.5 610C1977.5 618.56 1970.56 625.499 1962 625.499 1953.44 625.499 1946.5 618.56 1946.5 610 1946.5 601.44 1953.44 594.5 1962 594.5 1970.56 594.5 1977.5 601.44 1977.5 610Z" stroke="#0F9ED5" stroke-width="3.4375" stroke-linejoin="round" stroke-miterlimit="10" fill="#0F9ED5"/><path d="M1947.5 644C1947.5 652.56 1940.56 659.499 1932 659.499 1923.44 659.499 1916.5 652.56 1916.5 644 1916.5 635.44 1923.44 628.5 1932 628.5 1940.56 628.5 1947.5 635.44 1947.5 644Z" stroke="#0F9ED5" stroke-width="3.4375" stroke-linejoin="round" stroke-miterlimit="10" fill="#0F9ED5"/><path d="M1916.5 683C1916.5 691.56 1909.56 698.499 1901 698.499 1892.44 698.499 1885.5 691.56 1885.5 683 1885.5 674.44 1892.44 667.5 1901 667.5 1909.56 667.5 1916.5 674.44 1916.5 683Z" stroke="#0F9ED5" stroke-width="3.4375" stroke-linejoin="round" stroke-miterlimit="10" fill="#0F9ED5"/><path d="M1886.5 710C1886.5 718.56 1879.56 725.499 1871 725.499 1862.44 725.499 1855.5 718.56 1855.5 710 1855.5 701.44 1862.44 694.5 1871 694.5 1879.56 694.5 1886.5 701.44 1886.5 710Z" stroke="#0F9ED5" stroke-width="3.4375" stroke-linejoin="round" stroke-miterlimit="10" fill="#0F9ED5"/><path d="M1856.5 747C1856.5 755.56 1849.56 762.5 1841 762.5 1832.44 762.5 1825.5 755.56 1825.5 747 1825.5 738.44 1832.44 731.5 1841 731.5 1849.56 731.5 1856.5 738.44 1856.5 747Z" stroke="#0F9ED5" stroke-width="3.4375" stroke-linejoin="round" stroke-miterlimit="10" fill="#0F9ED5"/><path d="M1826.5 786C1826.5 794.56 1819.56 801.499 1811 801.499 1802.44 801.499 1795.5 794.56 1795.5 786 1795.5 777.44 1802.44 770.5 1811 770.5 1819.56 770.5 1826.5 777.44 1826.5 786Z" stroke="#0F9ED5" stroke-width="3.4375" stroke-linejoin="round" stroke-miterlimit="10" fill="#0F9ED5"/><path d="M1796.5 820C1796.5 828.56 1789.56 835.499 1781 835.499 1772.44 835.499 1765.5 828.56 1765.5 820 1765.5 811.44 1772.44 804.5 1781 804.5 1789.56 804.5 1796.5 811.44 1796.5 820Z" stroke="#0F9ED5" stroke-width="3.4375" stroke-linejoin="round" stroke-miterlimit="10" fill="#0F9ED5"/><path d="M1765.5 862C1765.5 870.56 1758.56 877.499 1750 877.499 1741.44 877.499 1734.5 870.56 1734.5 862 1734.5 853.44 1741.44 846.5 1750 846.5 1758.56 846.5 1765.5 853.44 1765.5 862Z" stroke="#0F9ED5" stroke-width="3.4375" stroke-linejoin="round" stroke-miterlimit="10" fill="#0F9ED5"/><path d="M1735.5 903C1735.5 911.56 1728.56 918.499 1720 918.499 1711.44 918.499 1704.5 911.56 1704.5 903 1704.5 894.44 1711.44 887.5 1720 887.5 1728.56 887.5 1735.5 894.44 1735.5 903Z" stroke="#0F9ED5" stroke-width="3.4375" stroke-linejoin="round" stroke-miterlimit="10" fill="#0F9ED5"/><path d="M1705.5 937C1705.5 945.56 1698.56 952.499 1690 952.499 1681.44 952.499 1674.5 945.56 1674.5 937 1674.5 928.44 1681.44 921.5 1690 921.5 1698.56 921.5 1705.5 928.44 1705.5 937Z" stroke="#0F9ED5" stroke-width="3.4375" stroke-linejoin="round" stroke-miterlimit="10" fill="#0F9ED5"/><path d="M1675.5 981C1675.5 989.56 1668.56 996.499 1660 996.499 1651.44 996.499 1644.5 989.56 1644.5 981 1644.5 972.44 1651.44 965.5 1660 965.5 1668.56 965.5 1675.5 972.44 1675.5 981Z" stroke="#0F9ED5" stroke-width="3.4375" stroke-linejoin="round" stroke-miterlimit="10" fill="#0F9ED5"/><path d="M1645.5 1016C1645.5 1024.56 1638.56 1031.5 1630 1031.5 1621.44 1031.5 1614.5 1024.56 1614.5 1016 1614.5 1007.44 1621.44 1000.5 1630 1000.5 1638.56 1000.5 1645.5 1007.44 1645.5 1016Z" stroke="#0F9ED5" stroke-width="3.4375" stroke-linejoin="round" stroke-miterlimit="10" fill="#0F9ED5"/><path d="M1614.5 1054C1614.5 1062.56 1607.56 1069.5 1599 1069.5 1590.44 1069.5 1583.5 1062.56 1583.5 1054 1583.5 1045.44 1590.44 1038.5 1599 1038.5 1607.56 1038.5 1614.5 1045.44 1614.5 1054Z" stroke="#0F9ED5" stroke-width="3.4375" stroke-linejoin="round" stroke-miterlimit="10" fill="#0F9ED5"/><path d="M1584.5 1089C1584.5 1097.56 1577.56 1104.5 1569 1104.5 1560.44 1104.5 1553.5 1097.56 1553.5 1089 1553.5 1080.44 1560.44 1073.5 1569 1073.5 1577.56 1073.5 1584.5 1080.44 1584.5 1089Z" stroke="#0F9ED5" stroke-width="3.4375" stroke-linejoin="round" stroke-miterlimit="10" fill="#0F9ED5"/><path d="M1554.5 1126C1554.5 1134.56 1547.56 1141.5 1539 1141.5 1530.44 1141.5 1523.5 1134.56 1523.5 1126 1523.5 1117.44 1530.44 1110.5 1539 1110.5 1547.56 1110.5 1554.5 1117.44 1554.5 1126Z" stroke="#0F9ED5" stroke-width="3.4375" stroke-linejoin="round" stroke-miterlimit="10" fill="#0F9ED5"/><path d="M1524.5 1184C1524.5 1192.56 1517.56 1199.5 1509 1199.5 1500.44 1199.5 1493.5 1192.56 1493.5 1184 1493.5 1175.44 1500.44 1168.5 1509 1168.5 1517.56 1168.5 1524.5 1175.44 1524.5 1184Z" stroke="#0F9ED5" stroke-width="3.4375" stroke-linejoin="round" stroke-miterlimit="10" fill="#0F9ED5"/><path d="M1494.5 1224C1494.5 1232.56 1487.56 1239.5 1479 1239.5 1470.44 1239.5 1463.5 1232.56 1463.5 1224 1463.5 1215.44 1470.44 1208.5 1479 1208.5 1487.56 1208.5 1494.5 1215.44 1494.5 1224Z" stroke="#0F9ED5" stroke-width="3.4375" stroke-linejoin="round" stroke-miterlimit="10" fill="#0F9ED5"/><path d="M1463.5 1264C1463.5 1272.56 1456.56 1279.5 1448 1279.5 1439.44 1279.5 1432.5 1272.56 1432.5 1264 1432.5 1255.44 1439.44 1248.5 1448 1248.5 1456.56 1248.5 1463.5 1255.44 1463.5 1264Z" stroke="#0F9ED5" stroke-width="3.4375" stroke-linejoin="round" stroke-miterlimit="10" fill="#0F9ED5"/><path d="M1433.5 1295C1433.5 1303.56 1426.56 1310.5 1418 1310.5 1409.44 1310.5 1402.5 1303.56 1402.5 1295 1402.5 1286.44 1409.44 1279.5 1418 1279.5 1426.56 1279.5 1433.5 1286.44 1433.5 1295Z" stroke="#0F9ED5" stroke-width="3.4375" stroke-linejoin="round" stroke-miterlimit="10" fill="#0F9ED5"/><path d="M1403.5 1335C1403.5 1343.56 1396.56 1350.5 1388 1350.5 1379.44 1350.5 1372.5 1343.56 1372.5 1335 1372.5 1326.44 1379.44 1319.5 1388 1319.5 1396.56 1319.5 1403.5 1326.44 1403.5 1335Z" stroke="#0F9ED5" stroke-width="3.4375" stroke-linejoin="round" stroke-miterlimit="10" fill="#0F9ED5"/><path d="M1373.5 1369C1373.5 1377.56 1366.56 1384.5 1358 1384.5 1349.44 1384.5 1342.5 1377.56 1342.5 1369 1342.5 1360.44 1349.44 1353.5 1358 1353.5 1366.56 1353.5 1373.5 1360.44 1373.5 1369Z" stroke="#0F9ED5" stroke-width="3.4375" stroke-linejoin="round" stroke-miterlimit="10" fill="#0F9ED5"/><path d="M1343.5 1406C1343.5 1414.56 1336.56 1421.5 1328 1421.5 1319.44 1421.5 1312.5 1414.56 1312.5 1406 1312.5 1397.44 1319.44 1390.5 1328 1390.5 1336.56 1390.5 1343.5 1397.44 1343.5 1406Z" stroke="#0F9ED5" stroke-width="3.4375" stroke-linejoin="round" stroke-miterlimit="10" fill="#0F9ED5"/><path d="M1312.5 1435C1312.5 1443.56 1305.56 1450.5 1297 1450.5 1288.44 1450.5 1281.5 1443.56 1281.5 1435 1281.5 1426.44 1288.44 1419.5 1297 1419.5 1305.56 1419.5 1312.5 1426.44 1312.5 1435Z" stroke="#0F9ED5" stroke-width="3.4375" stroke-linejoin="round" stroke-miterlimit="10" fill="#0F9ED5"/><path d="M1282.5 1470C1282.5 1478.56 1275.56 1485.5 1267 1485.5 1258.44 1485.5 1251.5 1478.56 1251.5 1470 1251.5 1461.44 1258.44 1454.5 1267 1454.5 1275.56 1454.5 1282.5 1461.44 1282.5 1470Z" stroke="#0F9ED5" stroke-width="3.4375" stroke-linejoin="round" stroke-miterlimit="10" fill="#0F9ED5"/><path d="M1252.5 1500C1252.5 1508.56 1245.56 1515.5 1237 1515.5 1228.44 1515.5 1221.5 1508.56 1221.5 1500 1221.5 1491.44 1228.44 1484.5 1237 1484.5 1245.56 1484.5 1252.5 1491.44 1252.5 1500Z" stroke="#0F9ED5" stroke-width="3.4375" stroke-linejoin="round" stroke-miterlimit="10" fill="#0F9ED5"/><path d="M1222.5 1523C1222.5 1531.56 1215.56 1538.5 1207 1538.5 1198.44 1538.5 1191.5 1531.56 1191.5 1523 1191.5 1514.44 1198.44 1507.5 1207 1507.5 1215.56 1507.5 1222.5 1514.44 1222.5 1523Z" stroke="#0F9ED5" stroke-width="3.4375" stroke-linejoin="round" stroke-miterlimit="10" fill="#0F9ED5"/><path d="M1192.5 1550C1192.5 1558.56 1185.56 1565.5 1177 1565.5 1168.44 1565.5 1161.5 1558.56 1161.5 1550 1161.5 1541.44 1168.44 1534.5 1177 1534.5 1185.56 1534.5 1192.5 1541.44 1192.5 1550Z" stroke="#0F9ED5" stroke-width="3.4375" stroke-linejoin="round" stroke-miterlimit="10" fill="#0F9ED5"/><path d="M1161.5 1576C1161.5 1584.56 1154.56 1591.5 1146 1591.5 1137.44 1591.5 1130.5 1584.56 1130.5 1576 1130.5 1567.44 1137.44 1560.5 1146 1560.5 1154.56 1560.5 1161.5 1567.44 1161.5 1576Z" stroke="#0F9ED5" stroke-width="3.4375" stroke-linejoin="round" stroke-miterlimit="10" fill="#0F9ED5"/><path d="M1131.5 1596C1131.5 1604.56 1124.56 1611.5 1116 1611.5 1107.44 1611.5 1100.5 1604.56 1100.5 1596 1100.5 1587.44 1107.44 1580.5 1116 1580.5 1124.56 1580.5 1131.5 1587.44 1131.5 1596Z" stroke="#0F9ED5" stroke-width="3.4375" stroke-linejoin="round" stroke-miterlimit="10" fill="#0F9ED5"/><path d="M1101.5 1616C1101.5 1624.56 1094.56 1631.5 1086 1631.5 1077.44 1631.5 1070.5 1624.56 1070.5 1616 1070.5 1607.44 1077.44 1600.5 1086 1600.5 1094.56 1600.5 1101.5 1607.44 1101.5 1616Z" stroke="#0F9ED5" stroke-width="3.4375" stroke-linejoin="round" stroke-miterlimit="10" fill="#0F9ED5"/><path d="M1071.5 1634C1071.5 1642.56 1064.56 1649.5 1056 1649.5 1047.44 1649.5 1040.5 1642.56 1040.5 1634 1040.5 1625.44 1047.44 1618.5 1056 1618.5 1064.56 1618.5 1071.5 1625.44 1071.5 1634Z" stroke="#0F9ED5" stroke-width="3.4375" stroke-linejoin="round" stroke-miterlimit="10" fill="#0F9ED5"/><path d="M1041.5 1650C1041.5 1658.56 1034.56 1665.5 1026 1665.5 1017.44 1665.5 1010.5 1658.56 1010.5 1650 1010.5 1641.44 1017.44 1634.5 1026 1634.5 1034.56 1634.5 1041.5 1641.44 1041.5 1650Z" stroke="#0F9ED5" stroke-width="3.4375" stroke-linejoin="round" stroke-miterlimit="10" fill="#0F9ED5"/><path d="M1010.5 1661C1010.5 1669.56 1003.56 1676.5 995 1676.5 986.44 1676.5 979.501 1669.56 979.501 1661 979.501 1652.44 986.44 1645.5 995 1645.5 1003.56 1645.5 1010.5 1652.44 1010.5 1661Z" stroke="#0F9ED5" stroke-width="3.4375" stroke-linejoin="round" stroke-miterlimit="10" fill="#0F9ED5"/><path d="M980.5 1672C980.5 1680.56 973.56 1687.5 965 1687.5 956.44 1687.5 949.501 1680.56 949.501 1672 949.501 1663.44 956.44 1656.5 965 1656.5 973.56 1656.5 980.5 1663.44 980.5 1672Z" stroke="#0F9ED5" stroke-width="3.4375" stroke-linejoin="round" stroke-miterlimit="10" fill="#0F9ED5"/><path d="M950.5 1678C950.5 1686.56 943.561 1693.5 935 1693.5 926.44 1693.5 919.501 1686.56 919.501 1678 919.501 1669.44 926.44 1662.5 935 1662.5 943.561 1662.5 950.5 1669.44 950.5 1678Z" stroke="#0F9ED5" stroke-width="3.4375" stroke-linejoin="round" stroke-miterlimit="10" fill="#0F9ED5"/><path d="M920.5 1683C920.5 1691.56 913.56 1698.5 905 1698.5 896.44 1698.5 889.5 1691.56 889.5 1683 889.5 1674.44 896.44 1667.5 905 1667.5 913.56 1667.5 920.5 1674.44 920.5 1683Z" stroke="#0F9ED5" stroke-width="3.4375" stroke-linejoin="round" stroke-miterlimit="10" fill="#0F9ED5"/><path d="M890.5 1686C890.5 1694.56 883.56 1701.5 875 1701.5 866.44 1701.5 859.501 1694.56 859.501 1686 859.501 1677.44 866.44 1670.5 875 1670.5 883.56 1670.5 890.5 1677.44 890.5 1686Z" stroke="#0F9ED5" stroke-width="3.4375" stroke-linejoin="round" stroke-miterlimit="10" fill="#0F9ED5"/><path d="M859.5 1687C859.5 1695.56 852.56 1702.5 844 1702.5 835.44 1702.5 828.501 1695.56 828.501 1687 828.501 1678.44 835.44 1671.5 844 1671.5 852.56 1671.5 859.5 1678.44 859.5 1687Z" stroke="#0F9ED5" stroke-width="3.4375" stroke-linejoin="round" stroke-miterlimit="10" fill="#0F9ED5"/><path d="M829.5 1686C829.5 1694.56 822.561 1701.5 814 1701.5 805.44 1701.5 798.501 1694.56 798.501 1686 798.501 1677.44 805.44 1670.5 814 1670.5 822.561 1670.5 829.5 1677.44 829.5 1686Z" stroke="#0F9ED5" stroke-width="3.4375" stroke-linejoin="round" stroke-miterlimit="10" fill="#0F9ED5"/><path d="M799.5 1685C799.5 1693.56 792.56 1700.5 784 1700.5 775.44 1700.5 768.5 1693.56 768.5 1685 768.5 1676.44 775.44 1669.5 784 1669.5 792.56 1669.5 799.5 1676.44 799.5 1685Z" stroke="#0F9ED5" stroke-width="3.4375" stroke-linejoin="round" stroke-miterlimit="10" fill="#0F9ED5"/><path d="M769.5 1683C769.5 1691.56 762.56 1698.5 754 1698.5 745.44 1698.5 738.501 1691.56 738.501 1683 738.501 1674.44 745.44 1667.5 754 1667.5 762.56 1667.5 769.5 1674.44 769.5 1683Z" stroke="#0F9ED5" stroke-width="3.4375" stroke-linejoin="round" stroke-miterlimit="10" fill="#0F9ED5"/><path d="M739.5 1679C739.5 1687.56 732.56 1694.5 724 1694.5 715.44 1694.5 708.501 1687.56 708.501 1679 708.501 1670.44 715.44 1663.5 724 1663.5 732.56 1663.5 739.5 1670.44 739.5 1679Z" stroke="#0F9ED5" stroke-width="3.4375" stroke-linejoin="round" stroke-miterlimit="10" fill="#0F9ED5"/><path d="M708.5 1674C708.5 1682.56 701.561 1689.5 693 1689.5 684.44 1689.5 677.501 1682.56 677.501 1674 677.501 1665.44 684.44 1658.5 693 1658.5 701.561 1658.5 708.5 1665.44 708.5 1674Z" stroke="#0F9ED5" stroke-width="3.4375" stroke-linejoin="round" stroke-miterlimit="10" fill="#0F9ED5"/><path d="M678.5 1669C678.5 1677.56 671.56 1684.5 663 1684.5 654.44 1684.5 647.5 1677.56 647.5 1669 647.5 1660.44 654.44 1653.5 663 1653.5 671.56 1653.5 678.5 1660.44 678.5 1669Z" stroke="#0F9ED5" stroke-width="3.4375" stroke-linejoin="round" stroke-miterlimit="10" fill="#0F9ED5"/><path d="M648.5 1663C648.5 1671.56 641.56 1678.5 633 1678.5 624.44 1678.5 617.501 1671.56 617.501 1663 617.501 1654.44 624.44 1647.5 633 1647.5 641.56 1647.5 648.5 1654.44 648.5 1663Z" stroke="#0F9ED5" stroke-width="3.4375" stroke-linejoin="round" stroke-miterlimit="10" fill="#0F9ED5"/><path d="M618.5 1656C618.5 1664.56 611.56 1671.5 603 1671.5 594.44 1671.5 587.501 1664.56 587.501 1656 587.501 1647.44 594.44 1640.5 603 1640.5 611.56 1640.5 618.5 1647.44 618.5 1656Z" stroke="#0F9ED5" stroke-width="3.4375" stroke-linejoin="round" stroke-miterlimit="10" fill="#0F9ED5"/><path d="M588.5 1649C588.5 1657.56 581.56 1664.5 573 1664.5 564.44 1664.5 557.5 1657.56 557.5 1649 557.5 1640.44 564.44 1633.5 573 1633.5 581.56 1633.5 588.5 1640.44 588.5 1649Z" stroke="#0F9ED5" stroke-width="3.4375" stroke-linejoin="round" stroke-miterlimit="10" fill="#0F9ED5"/><path d="M557.5 1642C557.5 1650.56 550.56 1657.5 542 1657.5 533.44 1657.5 526.5 1650.56 526.5 1642 526.5 1633.44 533.44 1626.5 542 1626.5 550.56 1626.5 557.5 1633.44 557.5 1642Z" stroke="#0F9ED5" stroke-width="3.4375" stroke-linejoin="round" stroke-miterlimit="10" fill="#0F9ED5"/><path d="M527.5 1632C527.5 1640.56 520.56 1647.5 512 1647.5 503.44 1647.5 496.501 1640.56 496.501 1632 496.501 1623.44 503.44 1616.5 512 1616.5 520.56 1616.5 527.5 1623.44 527.5 1632Z" stroke="#0F9ED5" stroke-width="3.4375" stroke-linejoin="round" stroke-miterlimit="10" fill="#0F9ED5"/></g><g><path d="M2097 508 2070 481M2070 508 2097 481" stroke="#A02B93" stroke-width="3.4375" stroke-linejoin="round" stroke-miterlimit="10" fill="none"/><path d="M2066 535 2039 508M2039 535 2066 508" stroke="#A02B93" stroke-width="3.4375" stroke-linejoin="round" stroke-miterlimit="10" fill="none"/><path d="M2036 564 2009 537M2009 564 2036 537" stroke="#A02B93" stroke-width="3.4375" stroke-linejoin="round" stroke-miterlimit="10" fill="none"/><path d="M2006 593 1979 566M1979 593 2006 566" stroke="#A02B93" stroke-width="3.4375" stroke-linejoin="round" stroke-miterlimit="10" fill="none"/><path d="M1976 624 1949 597M1949 624 1976 597" stroke="#A02B93" stroke-width="3.4375" stroke-linejoin="round" stroke-miterlimit="10" fill="none"/><path d="M1946 658 1919 631M1919 658 1946 631" stroke="#A02B93" stroke-width="3.4375" stroke-linejoin="round" stroke-miterlimit="10" fill="none"/><path d="M1915 696.999 1888 670M1888 696.999 1915 670" stroke="#A02B93" stroke-width="3.4375" stroke-linejoin="round" stroke-miterlimit="10" fill="none"/><path d="M1885 724 1858 697M1858 724 1885 697" stroke="#A02B93" stroke-width="3.4375" stroke-linejoin="round" stroke-miterlimit="10" fill="none"/><path d="M1855 761 1828 734M1828 761 1855 734" stroke="#A02B93" stroke-width="3.4375" stroke-linejoin="round" stroke-miterlimit="10" fill="none"/><path d="M1825 800 1798 773M1798 800 1825 773" stroke="#A02B93" stroke-width="3.4375" stroke-linejoin="round" stroke-miterlimit="10" fill="none"/><path d="M1795 834 1768 807M1768 834 1795 807" stroke="#A02B93" stroke-width="3.4375" stroke-linejoin="round" stroke-miterlimit="10" fill="none"/><path d="M1764 876 1737 849M1737 876 1764 849" stroke="#A02B93" stroke-width="3.4375" stroke-linejoin="round" stroke-miterlimit="10" fill="none"/><path d="M1734 916.999 1707 890M1707 916.999 1734 890" stroke="#A02B93" stroke-width="3.4375" stroke-linejoin="round" stroke-miterlimit="10" fill="none"/><path d="M1704 950.999 1677 924M1677 950.999 1704 924" stroke="#A02B93" stroke-width="3.4375" stroke-linejoin="round" stroke-miterlimit="10" fill="none"/><path d="M1674 994.999 1647 968M1647 994.999 1674 968" stroke="#A02B93" stroke-width="3.4375" stroke-linejoin="round" stroke-miterlimit="10" fill="none"/><path d="M1644 1030 1617 1003M1617 1030 1644 1003" stroke="#A02B93" stroke-width="3.4375" stroke-linejoin="round" stroke-miterlimit="10" fill="none"/><path d="M1613 1068 1586 1041M1586 1068 1613 1041" stroke="#A02B93" stroke-width="3.4375" stroke-linejoin="round" stroke-miterlimit="10" fill="none"/><path d="M1583 1103 1556 1076M1556 1103 1583 1076" stroke="#A02B93" stroke-width="3.4375" stroke-linejoin="round" stroke-miterlimit="10" fill="none"/><path d="M1553 1140 1526 1113M1526 1140 1553 1113" stroke="#A02B93" stroke-width="3.4375" stroke-linejoin="round" stroke-miterlimit="10" fill="none"/><path d="M1523 1198 1496 1171M1496 1198 1523 1171" stroke="#A02B93" stroke-width="3.4375" stroke-linejoin="round" stroke-miterlimit="10" fill="none"/><path d="M1493 1238 1466 1211M1466 1238 1493 1211" stroke="#A02B93" stroke-width="3.4375" stroke-linejoin="round" stroke-miterlimit="10" fill="none"/><path d="M1462 1278 1435 1251M1435 1278 1462 1251" stroke="#A02B93" stroke-width="3.4375" stroke-linejoin="round" stroke-miterlimit="10" fill="none"/><path d="M1432 1309 1405 1282M1405 1309 1432 1282" stroke="#A02B93" stroke-width="3.4375" stroke-linejoin="round" stroke-miterlimit="10" fill="none"/><path d="M1402 1349 1375 1322M1375 1349 1402 1322" stroke="#A02B93" stroke-width="3.4375" stroke-linejoin="round" stroke-miterlimit="10" fill="none"/><path d="M1372 1383 1345 1356M1345 1383 1372 1356" stroke="#A02B93" stroke-width="3.4375" stroke-linejoin="round" stroke-miterlimit="10" fill="none"/><path d="M1342 1420 1315 1393M1315 1420 1342 1393" stroke="#A02B93" stroke-width="3.4375" stroke-linejoin="round" stroke-miterlimit="10" fill="none"/><path d="M1311 1449 1284 1422M1284 1449 1311 1422" stroke="#A02B93" stroke-width="3.4375" stroke-linejoin="round" stroke-miterlimit="10" fill="none"/><path d="M1281 1484 1254 1457M1254 1484 1281 1457" stroke="#A02B93" stroke-width="3.4375" stroke-linejoin="round" stroke-miterlimit="10" fill="none"/><path d="M1251 1514 1224 1487M1224 1514 1251 1487" stroke="#A02B93" stroke-width="3.4375" stroke-linejoin="round" stroke-miterlimit="10" fill="none"/><path d="M1221 1537 1194 1510M1194 1537 1221 1510" stroke="#A02B93" stroke-width="3.4375" stroke-linejoin="round" stroke-miterlimit="10" fill="none"/><path d="M1191 1564 1164 1537M1164 1564 1191 1537" stroke="#A02B93" stroke-width="3.4375" stroke-linejoin="round" stroke-miterlimit="10" fill="none"/></g><g><path d="M0 0 906 1111" stroke="#A02B93" stroke-width="13.75" stroke-linecap="round" stroke-linejoin="round" stroke-miterlimit="10" stroke-dasharray="41.25 55" fill="none" fill-rule="evenodd" transform="matrix(1 0 0 -1 1177 1578)"/></g><g><text fill="#595959" font-family="Aptos Narrow,Aptos Narrow_MSFontService,sans-serif" font-weight="400" font-stretch="semi-condensed" font-size="41" transform="matrix(1 0 0 1 1704.96 455)">y = 0.4312x + 0.0774</text></g><g><text fill="#595959" font-family="Aptos Narrow,Aptos Narrow_MSFontService,sans-serif" font-weight="400" font-stretch="semi-condensed" font-size="41" transform="matrix(1 0 0 1 1779.42 505)">R = 0.9984</text></g><g><text fill="#595959" font-family="Aptos Narrow,Aptos Narrow_MSFontService,sans-serif" font-weight="400" font-stretch="semi-condensed" font-size="41" transform="matrix(1 0 0 1 3178.26 1899)">-10</text></g><g><text fill="#595959" font-family="Aptos Narrow,Aptos Narrow_MSFontService,sans-serif" font-weight="400" font-stretch="semi-condensed" font-size="41" transform="matrix(1 0 0 1 3178.26 1727)">-8</text></g><g><text fill="#595959" font-family="Aptos Narrow,Aptos Narrow_MSFontService,sans-serif" font-weight="400" font-stretch="semi-condensed" font-size="41" transform="matrix(1 0 0 1 3178.26 1556)">-6</text></g><g><text fill="#595959" font-family="Aptos Narrow,Aptos Narrow_MSFontService,sans-serif" font-weight="400" font-stretch="semi-condensed" font-size="41" transform="matrix(1 0 0 1 3178.26 1384)">-4</text></g><g><text fill="#595959" font-family="Aptos Narrow,Aptos Narrow_MSFontService,sans-serif" font-weight="400" font-stretch="semi-condensed" font-size="41" transform="matrix(1 0 0 1 3178.26 1212)">-2</text></g><g><text fill="#595959" font-family="Aptos Narrow,Aptos Narrow_MSFontService,sans-serif" font-weight="400" font-stretch="semi-condensed" font-size="41" transform="matrix(1 0 0 1 3178.26 1040)">0</text></g><g><text fill="#595959" font-family="Aptos Narrow,Aptos Narrow_MSFontService,sans-serif" font-weight="400" font-stretch="semi-condensed" font-size="41" transform="matrix(1 0 0 1 3178.26 869)">2</text></g><g><text fill="#595959" font-family="Aptos Narrow,Aptos Narrow_MSFontService,sans-serif" font-weight="400" font-stretch="semi-condensed" font-size="41" transform="matrix(1 0 0 1 3178.26 697)">4</text></g><g><text fill="#595959" font-family="Aptos Narrow,Aptos Narrow_MSFontService,sans-serif" font-weight="400" font-stretch="semi-condensed" font-size="41" transform="matrix(1 0 0 1 3178.26 525)">6</text></g><g><text fill="#595959" font-family="Aptos Narrow,Aptos Narrow_MSFontService,sans-serif" font-weight="400" font-stretch="semi-condensed" font-size="41" transform="matrix(1 0 0 1 3178.26 353)">8</text></g><g><text fill="#595959" font-family="Aptos Narrow,Aptos Narrow_MSFontService,sans-serif" font-weight="400" font-stretch="semi-condensed" font-size="41" transform="matrix(1 0 0 1 3178.26 182)">10</text></g><g><text fill="#595959" font-family="Aptos Narrow,Aptos Narrow_MSFontService,sans-serif" font-weight="400" font-stretch="semi-condensed" font-size="41" transform="matrix(1 0 0 1 1571.16 1899)">0</text></g><g><text fill="#595959" font-family="Aptos Narrow,Aptos Narrow_MSFontService,sans-serif" font-weight="400" font-stretch="semi-condensed" font-size="41" transform="matrix(1 0 0 1 1539.53 1684)">0.1</text></g><g><text fill="#595959" font-family="Aptos Narrow,Aptos Narrow_MSFontService,sans-serif" font-weight="400" font-stretch="semi-condensed" font-size="41" transform="matrix(1 0 0 1 1539.53 1470)">0.2</text></g><g><text fill="#595959" font-family="Aptos Narrow,Aptos Narrow_MSFontService,sans-serif" font-weight="400" font-stretch="semi-condensed" font-size="41" transform="matrix(1 0 0 1 1539.53 1255)">0.3</text></g><g><text fill="#595959" font-family="Aptos Narrow,Aptos Narrow_MSFontService,sans-serif" font-weight="400" font-stretch="semi-condensed" font-size="41" transform="matrix(1 0 0 1 1539.53 1040)">0.4</text></g><g><text fill="#595959" font-family="Aptos Narrow,Aptos Narrow_MSFontService,sans-serif" font-weight="400" font-stretch="semi-condensed" font-size="41" transform="matrix(1 0 0 1 1539.53 826)">0.5</text></g><g><text fill="#595959" font-family="Aptos Narrow,Aptos Narrow_MSFontService,sans-serif" font-weight="400" font-stretch="semi-condensed" font-size="41" transform="matrix(1 0 0 1 1539.53 611)">0.6</text></g><g><text fill="#595959" font-family="Aptos Narrow,Aptos Narrow_MSFontService,sans-serif" font-weight="400" font-stretch="semi-condensed" font-size="41" transform="matrix(1 0 0 1 1539.53 396)">0.7</text></g><g><text fill="#595959" font-family="Aptos Narrow,Aptos Narrow_MSFontService,sans-serif" font-weight="400" font-stretch="semi-condensed" font-size="41" transform="matrix(1 0 0 1 1539.53 182)">0.8</text></g><g><text fill="#595959" font-family="Aptos Narrow,Aptos Narrow_MSFontService,sans-serif" font-weight="400" font-stretch="semi-condensed" font-size="41" transform="matrix(1 0 0 1 92.893 1952)">-50</text></g><g><text fill="#595959" font-family="Aptos Narrow,Aptos Narrow_MSFontService,sans-serif" font-weight="400" font-stretch="semi-condensed" font-size="41" transform="matrix(1 0 0 1 394.9 1952)">-40</text></g><g><text fill="#595959" font-family="Aptos Narrow,Aptos Narrow_MSFontService,sans-serif" font-weight="400" font-stretch="semi-condensed" font-size="41" transform="matrix(1 0 0 1 696.907 1952)">-30</text></g><g><text fill="#595959" font-family="Aptos Narrow,Aptos Narrow_MSFontService,sans-serif" font-weight="400" font-stretch="semi-condensed" font-size="41" transform="matrix(1 0 0 1 998.914 1952)">-20</text></g><g><text fill="#595959" font-family="Aptos Narrow,Aptos Narrow_MSFontService,sans-serif" font-weight="400" font-stretch="semi-condensed" font-size="41" transform="matrix(1 0 0 1 1300.92 1952)">-10</text></g><g><text fill="#595959" font-family="Aptos Narrow,Aptos Narrow_MSFontService,sans-serif" font-weight="400" font-stretch="semi-condensed" font-size="41" transform="matrix(1 0 0 1 1619.69 1952)">0</text></g><g><text fill="#595959" font-family="Aptos Narrow,Aptos Narrow_MSFontService,sans-serif" font-weight="400" font-stretch="semi-condensed" font-size="41" transform="matrix(1 0 0 1 1911.25 1952)">10</text></g><g><text fill="#595959" font-family="Aptos Narrow,Aptos Narrow_MSFontService,sans-serif" font-weight="400" font-stretch="semi-condensed" font-size="41" transform="matrix(1 0 0 1 2213.26 1952)">20</text></g><g><text fill="#595959" font-family="Aptos Narrow,Aptos Narrow_MSFontService,sans-serif" font-weight="400" font-stretch="semi-condensed" font-size="41" transform="matrix(1 0 0 1 2515.26 1952)">30</text></g><g><text fill="#595959" font-family="Aptos Narrow,Aptos Narrow_MSFontService,sans-serif" font-weight="400" font-stretch="semi-condensed" font-size="41" transform="matrix(1 0 0 1 2817.27 1952)">40</text></g><g><text fill="#595959" font-family="Aptos Narrow,Aptos Narrow_MSFontService,sans-serif" font-weight="400" font-stretch="semi-condensed" font-size="41" transform="matrix(1 0 0 1 3119.28 1952)">50</text></g><g><text fill="#595959" font-family="Aptos Narrow,Aptos Narrow_MSFontService,sans-serif" font-weight="400" font-stretch="semi-condensed" font-size="46" transform="matrix(6.12323e-17 -1 1 6.12323e-17 3289.43 1103)">Position</text></g><g><text fill="#595959" font-family="Aptos Narrow,Aptos Narrow_MSFontService,sans-serif" font-weight="400" font-stretch="semi-condensed" font-size="46" transform="matrix(6.12323e-17 -1 1 6.12323e-17 100.283 1152)">Amplitude [V]</text></g><g><text fill="#595959" font-family="Aptos Narrow,Aptos Narrow_MSFontService,sans-serif" font-weight="400" font-stretch="semi-condensed" font-size="46" transform="matrix(1 0 0 1 1409.49 2020)">offset from middle value</text></g><g><text fill="#595959" font-family="Aptos Narrow,Aptos Narrow_MSFontService,sans-serif" font-weight="400" font-stretch="semi-condensed" font-size="64" transform="matrix(1 0 0 1 1217.96 94)">LVDT measurements with 1 mm step</text></g><g><path d="M602 2129C602 2135.07 597.075 2140 591 2140 584.925 2140 580 2135.07 580 2129 580 2122.92 584.925 2118 591 2118 597.075 2118 602 2122.92 602 2129Z" stroke="#196B24" stroke-width="3.4375" stroke-linejoin="round" stroke-miterlimit="10" fill="#196B24"/></g><g><text fill="#595959" font-family="Aptos Narrow,Aptos Narrow_MSFontService,sans-serif" font-weight="400" font-stretch="semi-condensed" font-size="41" transform="matrix(1 0 0 1 661.628 2141)">A1</text></g><g><path d="M857 2129C857 2135.07 852.075 2140 846 2140 839.925 2140 835 2135.07 835 2129 835 2122.92 839.925 2118 846 2118 852.075 2118 857 2122.92 857 2129Z" stroke="#E97132" stroke-width="3.4375" stroke-linejoin="round" stroke-miterlimit="10" fill="#E97132"/></g><g><text fill="#595959" font-family="Aptos Narrow,Aptos Narrow_MSFontService,sans-serif" font-weight="400" font-stretch="semi-condensed" font-size="41" transform="matrix(1 0 0 1 917.437 2141)">A2</text></g><g><path d="M1113 2129C1113 2135.07 1108.07 2140 1102 2140 1095.92 2140 1091 2135.07 1091 2129 1091 2122.92 1095.92 2118 1102 2118 1108.07 2118 1113 2122.92 1113 2129Z" stroke="#0F9ED5" stroke-width="3.4375" stroke-linejoin="round" stroke-miterlimit="10" fill="#0F9ED5"/></g><g><text fill="#595959" font-family="Aptos Narrow,Aptos Narrow_MSFontService,sans-serif" font-weight="400" font-stretch="semi-condensed" font-size="41" transform="matrix(1 0 0 1 1173.25 2141)">ratio=10*(A1-A2)/(A1+A2)</text></g><g><path d="M1753.5 2140.5 1730.5 2117.5M1730.5 2140.5 1753.5 2117.5" stroke="#A02B93" stroke-width="3.4375" stroke-linejoin="round" stroke-miterlimit="10" fill="none"/></g><g><text fill="#595959" font-family="Aptos Narrow,Aptos Narrow_MSFontService,sans-serif" font-weight="400" font-stretch="semi-condensed" font-size="41" transform="matrix(1 0 0 1 1812.91 2141)">ratio in linear section</text></g><g><path d="M2240 2129 2356 2129" stroke="#A02B93" stroke-width="13.75" stroke-linecap="round" stroke-linejoin="round" stroke-miterlimit="10" stroke-dasharray="41.25 55" fill="none" fill-rule="evenodd"/></g><g><text fill="#595959" font-family="Aptos Narrow,Aptos Narrow_MSFontService,sans-serif" font-weight="400" font-stretch="semi-condensed" font-size="41" transform="matrix(1 0 0 1 2368.47 2141)">Linear (ratio in linear section)</text></g><rect x="0.499836" y="0.499836" width="3360" height="2195" stroke="#D9D9D9" stroke-width="3.4375" stroke-linejoin="round" stroke-miterlimit="10" fill="none"/></g></svg>